<svg xmlns="http://www.w3.org/2000/svg" xmlns:xlink="http://www.w3.org/1999/xlink" width="369" zoomAndPan="magnify" viewBox="0 0 276.75 86.249997" height="115" preserveAspectRatio="xMidYMid meet" version="1.0"><defs><clipPath id="571232e8af"><path d="M 2.601562 4.953125 L 273 4.953125 L 273 77 L 2.601562 77 Z M 2.601562 4.953125 " clip-rule="nonzero"/></clipPath></defs><g clip-path="url(#571232e8af)"><path fill="#000000" d="M 37.171875 4.953125 L 238.183594 4.953125 L 272.742188 40.949219 L 238.183594 76.945312 L 37.171875 76.945312 L 2.617188 40.949219 Z M 37.171875 4.953125 " fill-opacity="1" fill-rule="nonzero"/></g><path fill="#ffffff" d="M 52.417969 52.15625 C 50.320312 52.15625 48.617188 51.617188 47.3125 50.542969 C 46.039062 49.464844 45.398438 47.945312 45.398438 45.992188 C 45.398438 44.230469 45.910156 42.828125 46.929688 41.78125 C 47.980469 40.703125 49.625 39.980469 51.863281 39.609375 L 57.265625 38.71875 C 58.429688 38.519531 59.25 38.234375 59.734375 37.867188 C 60.214844 37.5 60.457031 36.917969 60.457031 36.121094 C 60.457031 34.933594 60.058594 33.996094 59.265625 33.316406 C 58.5 32.636719 57.152344 32.296875 55.226562 32.296875 C 51.511719 32.296875 49.527344 33.867188 49.269531 37.015625 L 45.910156 37.015625 C 45.96875 34.71875 46.789062 32.917969 48.378906 31.613281 C 49.964844 30.28125 52.203125 29.617188 55.097656 29.617188 C 57.90625 29.617188 60.015625 30.210938 61.433594 31.402344 C 62.851562 32.5625 63.5625 34.136719 63.5625 36.121094 L 63.5625 46.332031 C 63.5625 48.171875 63.644531 49.933594 63.816406 51.605469 L 60.710938 51.605469 C 60.511719 49.476562 60.414062 47.820312 60.414062 46.628906 C 59.933594 48.160156 59.039062 49.464844 57.734375 50.542969 C 56.429688 51.617188 54.65625 52.15625 52.417969 52.15625 Z M 53.097656 49.476562 C 54.6875 49.476562 56.03125 49.109375 57.140625 48.371094 C 58.246094 47.636719 59.066406 46.65625 59.605469 45.4375 C 60.171875 44.21875 60.457031 42.914062 60.457031 41.523438 L 60.457031 39.695312 C 59.945312 40.0625 59.394531 40.347656 58.796875 40.546875 C 58.230469 40.746094 57.507812 40.941406 56.628906 41.140625 L 53.097656 41.863281 C 51.625 42.175781 50.546875 42.644531 49.867188 43.269531 C 49.183594 43.863281 48.84375 44.730469 48.84375 45.863281 C 48.84375 47.054688 49.226562 47.960938 49.992188 48.585938 C 50.757812 49.179688 51.792969 49.476562 53.097656 49.476562 Z M 53.097656 49.476562 " fill-opacity="1" fill-rule="nonzero"/><path fill="#ffffff" d="M 68.664062 21.832031 L 72.066406 21.832031 L 72.066406 51.605469 L 68.664062 51.605469 Z M 68.664062 21.832031 " fill-opacity="1" fill-rule="nonzero"/><path fill="#ffffff" d="M 94.464844 30.339844 L 97.867188 30.339844 L 97.867188 51.648438 C 97.867188 54.597656 97.046875 56.820312 95.402344 58.324219 C 93.785156 59.828125 91.105469 60.578125 87.363281 60.578125 C 84.214844 60.578125 81.789062 59.914062 80.089844 58.582031 C 78.386719 57.277344 77.4375 55.402344 77.238281 52.964844 L 80.601562 52.964844 C 80.910156 56.253906 83.167969 57.898438 87.363281 57.898438 C 89.886719 57.898438 91.699219 57.417969 92.808594 56.453125 C 93.914062 55.488281 94.464844 53.875 94.464844 51.605469 L 94.464844 47.011719 C 93.019531 49.761719 90.382812 51.136719 86.554688 51.136719 C 83.292969 51.136719 80.839844 50.203125 79.195312 48.328125 C 77.550781 46.429688 76.730469 43.792969 76.730469 40.417969 C 76.730469 37.074219 77.550781 34.464844 79.195312 32.59375 C 80.839844 30.691406 83.292969 29.742188 86.554688 29.742188 C 90.324219 29.742188 92.960938 31.160156 94.464844 33.996094 Z M 87.363281 48.457031 C 89.6875 48.457031 91.445312 47.820312 92.636719 46.542969 C 93.855469 45.265625 94.464844 43.226562 94.464844 40.417969 C 94.464844 37.640625 93.855469 35.613281 92.636719 34.335938 C 91.445312 33.0625 89.6875 32.421875 87.363281 32.421875 C 84.894531 32.421875 83.082031 33.046875 81.917969 34.292969 C 80.785156 35.542969 80.21875 37.582031 80.21875 40.417969 C 80.21875 43.253906 80.785156 45.308594 81.917969 46.585938 C 83.082031 47.832031 84.894531 48.457031 87.363281 48.457031 Z M 87.363281 48.457031 " fill-opacity="1" fill-rule="nonzero"/><path fill="#ffffff" d="M 112.523438 52.285156 C 110.199219 52.285156 108.230469 51.804688 106.613281 50.839844 C 105.023438 49.847656 103.820312 48.5 102.996094 46.796875 C 102.203125 45.070312 101.808594 43.113281 101.808594 40.929688 C 101.808594 38.773438 102.203125 36.847656 102.996094 35.144531 C 103.820312 33.445312 105.023438 32.109375 106.613281 31.148438 C 108.230469 30.152344 110.199219 29.65625 112.523438 29.65625 C 114.820312 29.65625 116.765625 30.152344 118.351562 31.148438 C 119.96875 32.109375 121.171875 33.445312 121.96875 35.144531 C 122.789062 36.847656 123.199219 38.773438 123.199219 40.929688 C 123.199219 43.113281 122.789062 45.054688 121.96875 46.757812 C 121.171875 48.457031 119.96875 49.804688 118.351562 50.796875 C 116.765625 51.789062 114.820312 52.285156 112.523438 52.285156 Z M 105.253906 40.972656 C 105.253906 43.921875 105.847656 46.089844 107.039062 47.480469 C 108.257812 48.839844 110.085938 49.519531 112.523438 49.519531 C 114.964844 49.519531 116.777344 48.839844 117.96875 47.480469 C 119.160156 46.089844 119.753906 43.921875 119.753906 40.972656 C 119.753906 38.023438 119.160156 35.867188 117.96875 34.507812 C 116.777344 33.117188 114.964844 32.421875 112.523438 32.421875 C 110.085938 32.421875 108.257812 33.117188 107.039062 34.507812 C 105.847656 35.867188 105.253906 38.023438 105.253906 40.972656 Z M 105.253906 40.972656 " fill-opacity="1" fill-rule="nonzero"/><path fill="#ffffff" d="M 139.191406 30.039062 L 139.191406 33.402344 L 138.300781 33.402344 C 135.378906 33.316406 133.367188 34.179688 132.261719 35.996094 C 131.183594 37.808594 130.644531 40.40625 130.644531 43.777344 L 130.644531 51.605469 L 127.242188 51.605469 L 127.242188 30.339844 L 130.644531 30.339844 L 130.644531 35.953125 C 131.324219 34.109375 132.304688 32.664062 133.578125 31.613281 C 134.882812 30.566406 136.5 30.039062 138.425781 30.039062 Z M 139.191406 30.039062 " fill-opacity="1" fill-rule="nonzero"/><path fill="#ffffff" d="M 159.011719 30.339844 L 162.371094 30.339844 L 152.375 55.136719 C 151.863281 56.4375 151.398438 57.417969 150.972656 58.070312 C 150.574219 58.75 150.023438 59.261719 149.3125 59.601562 C 148.605469 59.941406 147.625 60.109375 146.378906 60.109375 L 142.339844 60.109375 L 142.339844 57.347656 L 148.25 57.347656 L 150.589844 51.605469 L 149.398438 51.605469 L 140.976562 30.339844 L 144.550781 30.339844 L 151.058594 46.714844 L 151.78125 48.753906 L 152.417969 46.714844 Z M 159.011719 30.339844 " fill-opacity="1" fill-rule="nonzero"/><path fill="#ffffff" d="M 178.390625 25.15625 L 191.617188 38.382812 L 189.578125 40.382812 L 179.878906 30.601562 L 179.878906 51.605469 L 176.859375 51.605469 L 176.859375 30.644531 L 167.164062 40.382812 L 165.121094 38.382812 Z M 178.390625 25.15625 " fill-opacity="1" fill-rule="nonzero"/><path fill="#ffffff" d="M 222.484375 29.65625 C 227.273438 29.65625 229.671875 32.410156 229.671875 37.910156 L 229.671875 51.605469 L 226.265625 51.605469 L 226.265625 38.292969 C 226.265625 36.222656 225.855469 34.746094 225.035156 33.867188 C 224.238281 32.960938 223.035156 32.507812 221.417969 32.507812 C 219.121094 32.507812 217.421875 33.414062 216.316406 35.230469 C 215.238281 37.042969 214.699219 39.796875 214.699219 43.480469 L 214.699219 51.605469 L 211.382812 51.605469 L 211.382812 38.292969 C 211.382812 36.222656 210.96875 34.746094 210.148438 33.867188 C 209.324219 32.960938 208.105469 32.507812 206.492188 32.507812 C 204.222656 32.507812 202.535156 33.414062 201.429688 35.230469 C 200.351562 37.042969 199.8125 39.796875 199.8125 43.480469 L 199.8125 51.605469 L 196.410156 51.605469 L 196.410156 30.339844 L 199.8125 30.339844 L 199.8125 35.570312 C 201.144531 31.628906 203.726562 29.65625 207.554688 29.65625 C 211.609375 29.65625 213.933594 31.65625 214.527344 35.65625 C 215.832031 31.65625 218.484375 29.65625 222.484375 29.65625 Z M 222.484375 29.65625 " fill-opacity="1" fill-rule="nonzero"/></svg>