<svg xmlns="http://www.w3.org/2000/svg" xmlns:xlink="http://www.w3.org/1999/xlink" width="500" zoomAndPan="magnify" viewBox="0 0 375 374.999991" height="500" preserveAspectRatio="xMidYMid meet" version="1.0"><defs><clipPath id="e1e963b7d8"><path d="M 10.003906 23 L 351 23 L 351 364.449219 L 10.003906 364.449219 Z M 10.003906 23 " clip-rule="nonzero"/></clipPath><clipPath id="ef08a010ca"><path d="M 170 11 L 364.753906 11 L 364.753906 204 L 170 204 Z M 170 11 " clip-rule="nonzero"/></clipPath></defs><path fill="#68afe2" d="M 180.476562 144.839844 C 185.757812 144.839844 190.046875 140.558594 190.046875 135.273438 C 190.046875 129.988281 185.757812 125.707031 180.476562 125.707031 C 142.921875 125.707031 112.378906 156.253906 112.378906 193.800781 C 112.378906 231.347656 142.921875 261.902344 180.476562 261.902344 C 218.027344 261.902344 248.574219 231.347656 248.574219 193.800781 C 248.574219 188.515625 244.285156 184.230469 239.003906 184.230469 C 233.722656 184.230469 229.433594 188.515625 229.433594 193.800781 C 229.433594 220.796875 207.46875 242.757812 180.476562 242.757812 C 153.484375 242.757812 131.519531 220.796875 131.519531 193.800781 C 131.519531 166.804688 153.484375 144.839844 180.476562 144.839844 " fill-opacity="1" fill-rule="nonzero"/><path fill="#68afe2" d="M 180.476562 76.601562 C 115.847656 76.601562 63.28125 129.175781 63.28125 193.800781 C 63.28125 258.429688 115.847656 311.003906 180.476562 311.003906 C 245.105469 311.003906 297.6875 258.429688 297.6875 193.800781 C 297.6875 188.515625 293.398438 184.230469 288.113281 184.230469 C 282.832031 184.230469 278.542969 188.515625 278.542969 193.800781 C 278.542969 247.871094 234.554688 291.863281 180.476562 291.863281 C 126.410156 291.863281 82.417969 247.871094 82.417969 193.800781 C 82.417969 139.730469 126.410156 95.738281 180.476562 95.738281 C 185.757812 95.738281 190.046875 91.453125 190.046875 86.167969 C 190.046875 80.882812 185.757812 76.601562 180.476562 76.601562 " fill-opacity="1" fill-rule="nonzero"/><g clip-path="url(#e1e963b7d8)"><path fill="#68afe2" d="M 341.421875 184.230469 C 336.136719 184.230469 331.851562 188.515625 331.851562 193.800781 C 331.851562 277.257812 263.9375 345.164062 180.476562 345.164062 C 97.015625 345.164062 29.113281 277.257812 29.113281 193.800781 C 29.113281 110.339844 97.015625 42.433594 180.476562 42.433594 C 185.757812 42.433594 190.046875 38.152344 190.046875 32.867188 C 190.046875 27.578125 185.757812 23.292969 180.476562 23.292969 C 86.464844 23.292969 9.972656 99.78125 9.972656 193.800781 C 9.972656 287.816406 86.464844 364.300781 180.476562 364.300781 C 274.503906 364.300781 350.988281 287.816406 350.988281 193.800781 C 350.988281 188.515625 346.699219 184.230469 341.421875 184.230469 " fill-opacity="1" fill-rule="nonzero"/></g><g clip-path="url(#ef08a010ca)"><path fill="#68afe2" d="M 304.9375 110.722656 L 283.535156 105.613281 L 314.546875 74.601562 L 335.949219 79.714844 Z M 264.871094 70.671875 L 295.898438 39.652344 L 300.757812 59.988281 L 269.734375 91.007812 Z M 364.027344 71.789062 C 363.09375 68.453125 360.417969 65.878906 357.042969 65.074219 L 319.507812 56.101562 L 310.539062 18.5625 C 309.730469 15.191406 307.160156 12.523438 303.828125 11.574219 C 300.488281 10.660156 296.910156 11.574219 294.457031 14.019531 L 247.558594 60.914062 C 245.195312 63.269531 244.238281 66.671875 245.007812 69.910156 L 253.851562 106.890625 L 173.710938 187.03125 C 169.972656 190.773438 169.972656 196.835938 173.710938 200.574219 C 175.582031 202.4375 178.023438 203.371094 180.476562 203.371094 C 182.929688 203.371094 185.375 202.4375 187.242188 200.574219 L 266.574219 121.238281 L 305.699219 130.59375 C 306.433594 130.769531 307.183594 130.851562 307.917969 130.851562 C 310.433594 130.851562 312.871094 129.867188 314.683594 128.050781 L 361.585938 81.160156 C 364.039062 78.703125 364.972656 75.125 364.027344 71.789062 " fill-opacity="1" fill-rule="nonzero"/></g></svg>