<svg xmlns="http://www.w3.org/2000/svg" xmlns:xlink="http://www.w3.org/1999/xlink" width="500" zoomAndPan="magnify" viewBox="0 0 375 374.999991" height="500" preserveAspectRatio="xMidYMid meet" version="1.0"><defs><clipPath id="d3afdac02c"><path d="M 0 93 L 375 93 L 375 368.25 L 0 368.25 Z M 0 93 " clip-rule="nonzero"/></clipPath></defs><g clip-path="url(#d3afdac02c)"><path fill="#68afe2" d="M 12.648438 355.949219 L 12.648438 343.457031 L 362.351562 343.457031 L 362.351562 355.949219 Z M 12.648438 143.628906 L 31.382812 143.628906 L 31.382812 297.671875 C 31.382812 301.136719 34.1875 303.917969 37.628906 303.917969 C 95.78125 303.917969 139.324219 319.652344 163.203125 330.96875 L 12.648438 330.96875 Z M 337.371094 303.917969 C 340.8125 303.917969 343.617188 301.136719 343.617188 297.671875 L 343.617188 143.628906 L 362.351562 143.628906 L 362.351562 330.96875 L 211.722656 330.96875 C 235.554688 319.652344 279.023438 303.917969 337.371094 303.917969 Z M 368.597656 131.140625 L 343.617188 131.140625 L 343.617188 99.914062 C 343.617188 96.476562 340.8125 93.671875 337.371094 93.671875 C 320.175781 93.671875 303.050781 94.988281 286.441406 97.597656 L 288.390625 109.941406 C 302.34375 107.746094 316.6875 106.5 331.128906 106.234375 L 331.128906 291.5 C 261.460938 292.769531 213.382812 315.039062 193.746094 326.066406 L 193.746094 305.992188 L 181.253906 305.992188 L 181.253906 326.066406 C 161.617188 315.039062 113.539062 292.769531 43.871094 291.5 L 43.871094 106.234375 C 58.3125 106.5 72.65625 107.746094 86.609375 109.941406 L 88.558594 97.621094 C 71.972656 94.988281 54.824219 93.671875 37.628906 93.671875 C 34.1875 93.671875 31.382812 96.476562 31.382812 99.914062 L 31.382812 131.140625 L 6.402344 131.140625 C 2.964844 131.140625 0.160156 133.945312 0.160156 137.382812 L 0.160156 362.191406 C 0.160156 365.632812 2.964844 368.4375 6.402344 368.4375 L 368.597656 368.4375 C 372.035156 368.4375 374.839844 365.632812 374.839844 362.191406 L 374.839844 137.382812 C 374.839844 133.945312 372.035156 131.140625 368.597656 131.140625 " fill-opacity="1" fill-rule="nonzero"/></g><path fill="#68afe2" d="M 187.5 184.753906 L 158.863281 156.117188 L 168.765625 146.214844 L 183.085938 160.53125 C 185.523438 162.972656 189.476562 162.972656 191.914062 160.53125 L 206.234375 146.214844 L 216.136719 156.117188 Z M 241.628906 70.617188 C 258.828125 86.035156 268.679688 108.085938 268.679688 131.140625 C 268.679688 160.921875 252.363281 188.269531 226.066406 202.488281 C 217.699219 207.027344 212.480469 215.539062 212.480469 224.710938 L 193.746094 224.734375 L 193.746094 196.171875 L 229.382812 160.53125 C 231.824219 158.09375 231.824219 154.140625 229.382812 151.703125 L 210.648438 132.96875 C 208.210938 130.527344 204.257812 130.527344 201.820312 132.96875 L 187.5 147.289062 L 173.179688 132.96875 C 170.742188 130.527344 166.789062 130.527344 164.351562 132.96875 L 145.617188 151.703125 C 143.175781 154.140625 143.175781 158.09375 145.617188 160.53125 L 181.253906 196.171875 L 181.253906 224.761719 L 162.519531 224.808594 L 162.519531 224.710938 C 162.519531 215.539062 157.300781 207.027344 148.910156 202.488281 C 118.953125 186.269531 102.539062 153.847656 107.074219 119.894531 C 111.929688 83.695312 141.835938 54.519531 178.183594 50.46875 C 201.648438 47.859375 224.1875 55.03125 241.628906 70.617188 Z M 162.519531 281.011719 L 162.519531 262.277344 L 212.480469 262.277344 L 212.480469 281.011719 Z M 212.480469 237.296875 L 212.480469 249.789062 L 162.519531 249.789062 L 162.519531 237.296875 Z M 94.707031 118.234375 C 89.4375 157.363281 108.390625 194.757812 142.980469 213.464844 C 147.324219 215.808594 150.03125 220.125 150.03125 224.710938 L 150.03125 287.257812 C 150.03125 290.695312 152.835938 293.5 156.277344 293.5 L 218.722656 293.5 C 222.164062 293.5 224.96875 290.695312 224.96875 287.257812 L 224.96875 224.710938 C 224.96875 220.125 227.675781 215.808594 232.019531 213.464844 C 262.339844 197.074219 281.171875 165.507812 281.171875 131.140625 C 281.171875 104.527344 269.777344 79.082031 249.945312 61.324219 C 229.847656 43.324219 203.917969 35.078125 176.792969 38.054688 C 134.835938 42.710938 100.292969 76.425781 94.707031 118.234375 " fill-opacity="1" fill-rule="nonzero"/><path fill="#68afe2" d="M 193.746094 0 L 181.253906 0 L 181.253906 24.980469 L 193.746094 24.980469 L 193.746094 0 " fill-opacity="1" fill-rule="nonzero"/><path fill="#68afe2" d="M 283 33.054688 L 264.265625 51.789062 L 273.097656 60.617188 L 291.832031 41.882812 L 283 33.054688 " fill-opacity="1" fill-rule="nonzero"/><path fill="#68afe2" d="M 83.167969 41.882812 L 101.902344 60.617188 L 110.734375 51.789062 L 92 33.054688 L 83.167969 41.882812 " fill-opacity="1" fill-rule="nonzero"/><path fill="#68afe2" d="M 318.640625 143.628906 L 293.660156 143.628906 L 293.660156 131.140625 L 318.640625 131.140625 L 318.640625 143.628906 " fill-opacity="1" fill-rule="nonzero"/><path fill="#68afe2" d="M 81.339844 143.652344 L 56.359375 143.628906 L 56.359375 131.140625 L 81.339844 131.164062 L 81.339844 143.652344 " fill-opacity="1" fill-rule="nonzero"/></svg>