<svg xmlns="http://www.w3.org/2000/svg" xmlns:xlink="http://www.w3.org/1999/xlink" width="500" zoomAndPan="magnify" viewBox="0 0 375 374.999991" height="500" preserveAspectRatio="xMidYMid meet" version="1.0"><defs><clipPath id="5a3fe92493"><path d="M 4.21875 0 L 370.96875 0 L 370.96875 375 L 4.21875 375 Z M 4.21875 0 " clip-rule="nonzero"/></clipPath></defs><g clip-path="url(#5a3fe92493)"><path fill="#68afe2" d="M 150.328125 354.738281 L 150.398438 333.019531 C 150.425781 328.054688 146.324219 323.976562 141.453125 323.976562 L 69.957031 323.726562 C 65.015625 323.703125 60.9375 327.777344 60.914062 332.671875 L 60.84375 354.390625 C 60.816406 359.332031 64.894531 363.410156 69.789062 363.433594 L 141.285156 363.683594 C 146.234375 363.683594 150.304688 359.632812 150.328125 354.738281 Z M 161.65625 333.019531 L 161.582031 354.738281 C 161.535156 365.90625 152.425781 374.972656 141.285156 374.949219 L 69.789062 374.695312 C 58.597656 374.648438 49.53125 365.542969 49.578125 354.398438 L 49.652344 332.679688 C 49.675781 324.71875 54.316406 317.710938 61.253906 314.417969 L 16.46875 266.625 C 12.140625 262.023438 9.855469 256.597656 9.605469 250.285156 L 4.824219 138.34375 C 4.25 124.863281 8.304688 115.578125 14.070312 110.699219 C 19.769531 105.894531 27.207031 105.160156 33.753906 108.6875 C 40.414062 112.257812 46.253906 120.429688 48.261719 133.113281 L 58.628906 198.230469 C 69.246094 189.738281 83.507812 196.859375 84.054688 196.90625 L 85.636719 196.746094 L 85.636719 121.945312 C 82.269531 121.945312 79.777344 119.476562 79.777344 116.292969 L 79.777344 102.933594 L 69.214844 102.933594 C 66.097656 102.933594 63.5625 100.414062 63.5625 97.28125 L 63.5625 70.636719 L 63.585938 70.636719 C 63.585938 68.640625 64.660156 66.71875 66.519531 65.695312 L 185.304688 1.085938 C 186.925781 0.171875 188.984375 0.101562 190.753906 1.0625 L 309.152344 65.46875 C 311.144531 66.339844 312.542969 68.328125 312.542969 70.644531 L 312.542969 97.289062 C 312.542969 100.421875 310 102.941406 306.890625 102.941406 L 295.078125 102.941406 L 295.078125 116.304688 C 295.078125 119.484375 292.582031 121.953125 289.21875 121.953125 L 289.21875 196.753906 L 290.914062 196.9375 C 291.398438 196.914062 305.769531 189.726562 316.433594 198.246094 L 326.800781 133.128906 C 328.8125 120.453125 334.648438 112.28125 341.3125 108.707031 C 347.859375 105.175781 355.296875 105.910156 360.996094 110.714844 C 366.761719 115.59375 370.8125 124.886719 370.242188 138.359375 L 365.460938 250.300781 C 365.210938 256.574219 362.902344 262.0625 358.613281 266.640625 L 313.800781 314.433594 C 320.738281 317.726562 325.378906 324.734375 325.40625 332.695312 L 325.476562 354.414062 C 325.527344 365.558594 316.457031 374.671875 305.269531 374.714844 L 233.773438 374.964844 C 222.628906 374.988281 213.515625 365.921875 213.472656 354.753906 L 213.402344 333.035156 C 213.378906 324.75 218.414062 317.429688 225.828125 314.3125 L 226.328125 259.957031 L 148.746094 259.957031 L 149.246094 314.3125 C 156.648438 317.402344 161.679688 324.726562 161.65625 333.019531 Z M 74.914062 312.488281 L 137.949219 312.695312 L 137.425781 255 C 137.375 250.371094 135.414062 246.464844 131.613281 243.695312 L 89.519531 212.957031 C 79.492188 205.632812 62.652344 198.511719 61.988281 217.125 L 108.496094 255.824219 C 110.878906 257.792969 111.214844 261.363281 109.230469 263.742188 C 107.234375 266.125 103.691406 266.464844 101.308594 264.476562 L 52.945312 224.246094 C 51.800781 223.375 51.023438 222.097656 50.796875 220.605469 L 37.128906 134.855469 C 35.730469 126.046875 32.25 120.671875 28.382812 118.605469 C 25.914062 117.28125 23.484375 117.480469 21.359375 119.289062 C 17.992188 122.132812 15.660156 128.261719 16.070312 137.875 L 20.851562 249.839844 C 20.988281 253.367188 22.25 256.316406 24.652344 258.882812 Z M 101.875 208.007812 L 115.558594 218.011719 L 131.441406 218.011719 L 131.441406 208.007812 Z M 131.054688 229.316406 L 138.265625 234.605469 C 143.070312 238.109375 146.433594 242.976562 147.878906 248.652344 L 227.160156 248.652344 C 228.605469 242.976562 231.964844 238.101562 236.777344 234.605469 L 243.984375 229.316406 Z M 237.089844 312.6875 L 300.125 312.476562 L 350.386719 258.875 C 352.832031 256.265625 354.050781 253.410156 354.1875 249.832031 L 358.96875 137.867188 C 359.378906 128.253906 357.046875 122.125 353.679688 119.28125 C 351.546875 117.472656 349.125 117.273438 346.65625 118.597656 C 342.789062 120.65625 339.308594 126.03125 337.910156 134.847656 L 324.25 220.585938 C 324.023438 222.074219 323.242188 223.355469 322.101562 224.230469 L 273.738281 264.460938 C 271.355469 266.457031 267.8125 266.109375 265.820312 263.726562 C 263.824219 261.34375 264.171875 257.777344 266.554688 255.804688 L 313.058594 217.109375 C 312.398438 198.246094 295.070312 205.964844 285.527344 212.941406 L 243.4375 243.679688 C 239.632812 246.449219 237.671875 250.363281 237.625 254.984375 Z M 224.640625 333.019531 L 224.714844 354.738281 C 224.738281 359.640625 228.808594 363.683594 233.757812 363.683594 L 305.253906 363.433594 C 310.167969 363.410156 314.222656 359.339844 314.199219 354.390625 L 314.125 332.671875 C 314.101562 327.769531 310.03125 323.703125 305.082031 323.726562 L 233.585938 323.976562 C 228.742188 323.976562 224.640625 328.003906 224.640625 333.019531 Z M 259.480469 218.003906 L 273.164062 208 L 243.390625 208 L 243.390625 218.003906 Z M 232.085938 218.003906 L 232.085938 202.371094 C 232.085938 199.191406 234.578125 196.71875 237.945312 196.71875 L 237.945312 121.921875 C 234.578125 121.921875 232.085938 119.453125 232.085938 116.269531 L 232.085938 102.90625 L 219.546875 102.90625 L 219.546875 116.269531 C 219.546875 119.453125 217.050781 121.921875 213.683594 121.921875 L 213.683594 196.71875 C 217.050781 196.71875 219.546875 199.191406 219.546875 202.371094 L 219.546875 218.003906 Z M 249.25 196.71875 L 277.90625 196.71875 L 277.90625 121.921875 L 249.25 121.921875 Z M 96.933594 196.71875 L 125.589844 196.71875 L 125.589844 121.921875 L 96.933594 121.921875 Z M 136.890625 196.71875 C 140.28125 196.71875 142.753906 199.191406 142.753906 202.371094 L 142.753906 218.003906 L 156.550781 218.003906 L 156.550781 202.371094 C 156.550781 199.191406 159.046875 196.71875 162.414062 196.71875 L 162.414062 121.921875 C 159.046875 121.921875 156.550781 119.453125 156.550781 116.269531 L 156.550781 102.90625 L 142.753906 102.90625 L 142.753906 116.269531 C 142.753906 119.453125 140.28125 121.921875 136.890625 121.921875 Z M 208.234375 218.003906 L 208.234375 208 L 167.863281 208 L 167.863281 218.003906 Z M 173.71875 196.71875 L 202.371094 196.71875 L 202.371094 121.921875 L 173.71875 121.921875 Z M 188.050781 29.605469 C 204.617188 29.605469 219.222656 41.941406 219.222656 58.421875 C 219.222656 74.898438 204.617188 87.210938 188.050781 87.210938 C 171.480469 87.210938 156.875 74.898438 156.875 58.421875 C 156.875 41.933594 171.472656 29.605469 188.050781 29.605469 Z M 202.308594 46.21875 C 189.90625 34.957031 168.1875 42.765625 168.1875 58.421875 C 168.1875 74.050781 189.90625 81.859375 202.308594 70.621094 C 209.792969 63.8125 209.792969 53.011719 202.308594 46.21875 Z M 74.867188 91.605469 L 301.222656 91.605469 L 301.222656 73.953125 L 188.050781 12.390625 L 74.867188 73.953125 Z M 243.390625 110.617188 L 283.757812 110.617188 L 283.757812 102.90625 L 243.390625 102.90625 Z M 91.070312 110.617188 L 131.441406 110.617188 L 131.441406 102.90625 L 91.070312 102.90625 Z M 167.863281 110.617188 L 208.234375 110.617188 L 208.234375 102.90625 L 167.863281 102.90625 Z M 167.863281 110.617188 " fill-opacity="1" fill-rule="nonzero"/></g></svg>