<svg xmlns="http://www.w3.org/2000/svg" xmlns:xlink="http://www.w3.org/1999/xlink" width="500" zoomAndPan="magnify" viewBox="0 0 375 374.999991" height="500" preserveAspectRatio="xMidYMid meet" version="1.0"><defs><clipPath id="c6d7cddb0a"><path d="M 166 216 L 368 216 L 368 370.5 L 166 370.5 Z M 166 216 " clip-rule="nonzero"/></clipPath><clipPath id="fc0ac79559"><path d="M 220 6 L 374.65625 6 L 374.65625 208 L 220 208 Z M 220 6 " clip-rule="nonzero"/></clipPath></defs><path fill="#ffffff" d="M 179.804688 148.441406 C 123.789062 92.425781 86.839844 161.269531 116.632812 191.058594 L 179.804688 254.230469 L 242.996094 191.058594 C 272.789062 161.265625 235.820312 92.425781 179.804688 148.441406 Z M 179.804688 148.441406 " fill-opacity="1" fill-rule="evenodd"/><path fill="#ffffff" d="M 174.050781 153.8125 C 161.265625 141.011719 143.707031 129.375 133.472656 127.652344 C 106.992188 132.472656 96.375 170.78125 116.632812 191.058594 L 174.050781 248.476562 L 231.464844 191.058594 C 251.722656 170.78125 241.105469 132.472656 214.628906 127.652344 C 198.296875 130.414062 183.988281 143.875 174.050781 153.8125 Z M 174.050781 153.8125 " fill-opacity="1" fill-rule="evenodd"/><path fill="#ffffff" d="M 286.058594 287.863281 L 293.875 285.742188 C 297.949219 284.636719 299.417969 283.300781 303.554688 276.121094 L 329.566406 231.085938 C 334.410156 222.695312 345.21875 219.808594 353.605469 224.652344 C 361.972656 229.472656 364.878906 240.300781 360.039062 248.667969 L 319.417969 319.035156 C 316.402344 324.257812 311.476562 328.082031 305.636719 329.632812 L 240.449219 347.105469 C 235.609375 348.613281 233.273438 349.632812 230.746094 354.050781 L 224.839844 364.261719 L 172.117188 333.8125 L 200.507812 284.636719 C 202.949219 280.410156 207.792969 276.929688 212.589844 275.953125 L 277.992188 258.414062 C 286.207031 256.226562 294.703125 261.128906 296.910156 269.328125 C 299.117188 277.566406 294.214844 285.65625 286.058594 287.863281 Z M 286.058594 287.863281 " fill-opacity="1" fill-rule="evenodd"/><path fill="#ffffff" d="M 311.816406 280.878906 L 337.828125 235.863281 C 341.839844 228.898438 349.953125 225.710938 357.40625 227.601562 C 362.734375 233.101562 364.050781 241.722656 360.039062 248.667969 L 319.417969 319.035156 C 316.402344 324.257812 311.476562 328.082031 305.636719 329.632812 L 240.449219 347.105469 C 235.605469 348.613281 233.269531 349.632812 230.742188 354.050781 L 224.839844 364.265625 L 180.378906 338.59375 L 208.765625 289.414062 C 211.210938 285.167969 216.050781 281.707031 220.847656 280.707031 L 286.273438 263.191406 C 288.691406 262.53125 291.15625 262.511719 293.46875 263 C 295.042969 264.761719 296.25 266.90625 296.910156 269.328125 C 298.96875 277.054688 294.808594 284.636719 287.566406 287.375 L 257.4375 295.53125 L 245.097656 298.886719 C 242.910156 299.480469 241.617188 301.730469 242.210938 303.917969 C 242.804688 306.082031 245.054688 307.378906 247.242188 306.785156 L 259.578125 303.449219 L 289.710938 295.273438 L 302.046875 291.921875 C 305.234375 291.070312 310.351562 283.425781 311.816406 280.878906 Z M 311.816406 280.878906 " fill-opacity="1" fill-rule="evenodd"/><path fill="#ffffff" d="M 291.960938 88.179688 L 289.839844 80.363281 C 288.734375 76.289062 287.417969 74.824219 280.21875 70.683594 L 235.183594 44.671875 C 226.792969 39.828125 223.90625 29.019531 228.75 20.632812 C 233.589844 12.265625 244.398438 9.359375 252.785156 14.199219 L 323.132812 54.820312 C 328.355469 57.835938 332.179688 62.761719 333.730469 68.601562 L 351.207031 133.789062 C 352.734375 138.632812 353.753906 140.96875 358.148438 143.496094 L 368.363281 149.398438 L 337.914062 202.121094 L 288.757812 173.730469 C 284.507812 171.289062 281.046875 166.449219 280.050781 161.648438 L 262.53125 96.25 C 260.324219 88.03125 265.230469 79.539062 273.445312 77.328125 C 281.6875 75.121094 289.753906 80.027344 291.960938 88.179688 Z M 291.960938 88.179688 " fill-opacity="1" fill-rule="evenodd"/><path fill="#ffffff" d="M 284.996094 62.421875 L 239.960938 36.410156 C 232.996094 32.398438 229.832031 24.285156 231.699219 16.832031 C 237.199219 11.503906 245.820312 10.1875 252.785156 14.199219 L 323.132812 54.820312 C 328.355469 57.835938 332.179688 62.761719 333.730469 68.601562 L 351.203125 133.789062 C 352.734375 138.632812 353.753906 140.96875 358.148438 143.496094 L 368.363281 149.398438 L 342.691406 193.863281 L 293.511719 165.472656 C 289.285156 163.03125 285.804688 158.1875 284.804688 153.390625 L 267.289062 87.96875 C 266.628906 85.546875 266.609375 83.082031 267.117188 80.769531 C 268.859375 79.195312 271.003906 77.988281 273.445312 77.328125 C 281.152344 75.269531 288.734375 79.429688 291.472656 86.671875 L 299.648438 116.804688 L 302.980469 129.140625 C 303.578125 131.328125 305.828125 132.621094 308.015625 132.027344 C 310.199219 131.433594 311.476562 129.183594 310.882812 126.996094 L 307.546875 114.660156 L 299.371094 84.527344 L 296.039062 72.191406 C 295.167969 69.007812 287.523438 63.886719 284.996094 62.421875 Z M 284.996094 62.421875 " fill-opacity="1" fill-rule="evenodd"/><path fill="#ffffff" d="M 92.277344 82.277344 L 84.460938 84.398438 C 80.386719 85.503906 78.941406 86.820312 74.78125 94.019531 L 48.789062 139.058594 C 43.949219 147.445312 33.117188 150.332031 24.753906 145.492188 C 16.363281 140.648438 13.476562 129.839844 18.296875 121.453125 L 58.9375 51.105469 C 61.953125 45.882812 66.859375 42.058594 72.699219 40.507812 L 137.910156 23.035156 C 142.730469 21.503906 145.066406 20.484375 147.589844 16.089844 L 153.496094 5.878906 L 206.238281 36.328125 L 177.851562 85.484375 C 175.386719 89.730469 170.546875 93.210938 165.746094 94.1875 L 100.34375 111.726562 C 92.148438 113.914062 83.632812 109.011719 81.425781 100.792969 C 79.21875 92.554688 84.121094 84.484375 92.277344 82.277344 Z M 92.277344 82.277344 " fill-opacity="1" fill-rule="evenodd"/><path fill="#ffffff" d="M 66.519531 89.242188 L 40.507812 134.277344 C 36.515625 141.246094 28.382812 144.40625 20.953125 142.539062 C 15.601562 137.039062 14.285156 128.417969 18.296875 121.453125 L 58.941406 51.105469 C 61.957031 45.882812 66.859375 42.058594 72.699219 40.511719 L 137.910156 23.035156 C 142.730469 21.507812 145.066406 20.488281 147.59375 16.089844 L 153.496094 5.878906 L 197.960938 31.550781 L 169.589844 80.726562 C 167.128906 84.953125 162.285156 88.4375 157.488281 89.433594 L 92.085938 106.953125 C 89.644531 107.609375 87.203125 107.628906 84.886719 107.121094 C 83.296875 105.378906 82.085938 103.234375 81.425781 100.792969 C 79.367188 93.085938 83.527344 85.503906 90.789062 82.765625 L 120.921875 74.59375 L 133.238281 71.257812 C 135.425781 70.664062 136.71875 68.414062 136.125 66.226562 C 135.53125 64.039062 133.28125 62.765625 131.09375 63.359375 L 118.757812 66.691406 L 88.625 74.867188 L 76.289062 78.203125 C 73.125 79.070312 67.984375 86.714844 66.519531 89.242188 Z M 66.519531 89.242188 " fill-opacity="1" fill-rule="evenodd"/><path fill="#ffffff" d="M 86.375 281.960938 L 88.496094 289.777344 C 89.601562 293.855469 90.941406 295.296875 98.117188 299.457031 L 143.15625 325.449219 C 151.542969 330.292969 154.429688 341.121094 149.589844 349.488281 C 144.769531 357.875 133.9375 360.761719 125.574219 355.941406 L 55.203125 315.300781 C 49.980469 312.304688 46.179688 307.378906 44.609375 301.539062 L 27.132812 236.332031 C 25.625 231.511719 24.605469 229.175781 20.1875 226.648438 L 9.976562 220.746094 L 40.425781 168 L 89.601562 196.390625 C 93.828125 198.851562 97.308594 203.695312 98.285156 208.492188 L 115.828125 273.894531 C 118.015625 282.089844 113.109375 290.605469 104.914062 292.8125 C 96.671875 295.023438 88.582031 290.117188 86.375 281.964844 Z M 86.375 281.960938 " fill-opacity="1" fill-rule="evenodd"/><path fill="#ffffff" d="M 93.359375 307.71875 L 138.398438 333.730469 C 145.339844 337.722656 148.527344 345.855469 146.636719 353.285156 C 141.136719 358.636719 132.515625 359.953125 125.574219 355.941406 L 55.203125 315.300781 C 49.980469 312.304688 46.15625 307.378906 44.609375 301.539062 L 27.132812 236.332031 C 25.625 231.511719 24.605469 229.175781 20.1875 226.648438 L 9.976562 220.746094 L 35.648438 176.28125 L 84.824219 204.671875 C 89.070312 207.113281 92.53125 211.953125 93.53125 216.753906 L 111.046875 282.152344 C 111.707031 284.59375 111.726562 287.058594 111.238281 289.351562 C 109.476562 290.945312 107.332031 292.15625 104.910156 292.8125 C 97.183594 294.871094 89.601562 290.710938 86.863281 283.46875 L 78.710938 253.339844 L 75.355469 241.003906 C 74.757812 238.816406 72.507812 237.519531 70.320312 238.113281 C 68.15625 238.710938 66.859375 240.960938 67.453125 243.148438 L 70.789062 255.484375 L 78.964844 285.613281 L 82.320312 297.949219 C 83.167969 301.113281 90.8125 306.253906 93.359375 307.71875 Z M 93.359375 307.71875 " fill-opacity="1" fill-rule="evenodd"/><path fill="#68afe2" d="M 146.445312 321.246094 L 104.996094 297.335938 C 105.058594 297.292969 105.125 297.292969 105.1875 297.269531 C 116.164062 294.320312 122.683594 283 119.753906 272.042969 L 102.363281 207.109375 C 101.027344 200.910156 96.671875 194.902344 91.238281 191.78125 L 42.335938 163.539062 C 41.125 162.839844 39.703125 162.648438 38.363281 163.007812 C 37.003906 163.367188 35.859375 164.238281 35.179688 165.449219 L 4.878906 217.898438 C 3.433594 220.402344 4.304688 223.609375 6.808594 225.054688 L 16.960938 230.914062 C 19.679688 232.488281 20.144531 233.355469 21.441406 237.496094 L 38.789062 302.261719 C 40.722656 309.417969 45.328125 315.382812 51.785156 319.121094 L 123.703125 360.632812 C 127.269531 362.714844 131.175781 363.691406 135.042969 363.691406 C 142.898438 363.671875 150.5625 359.613281 154.769531 352.332031 C 161.054688 341.460938 157.316406 327.53125 146.445312 321.246094 Z M 145.703125 347.085938 C 142.304688 352.925781 134.789062 354.921875 128.949219 351.566406 L 57.027344 310.03125 C 52.992188 307.71875 50.128906 303.960938 48.917969 299.542969 L 31.546875 234.695312 C 31.527344 234.609375 31.503906 234.546875 31.484375 234.480469 C 29.804688 229.109375 28.253906 225.332031 22.203125 221.847656 L 16.597656 218.597656 L 41.632812 175.238281 L 85.992188 200.847656 C 88.859375 202.503906 91.449219 206.09375 92.105469 209.382812 C 92.128906 209.492188 92.171875 209.574219 92.191406 209.683594 L 109.625 274.742188 C 111.070312 280.136719 107.863281 285.699219 102.488281 287.144531 C 97.203125 288.546875 91.9375 285.425781 90.472656 280.03125 L 90.472656 280.011719 C 90.449219 279.96875 90.429688 279.902344 90.40625 279.839844 L 77.242188 231.214844 C 76.476562 228.410156 73.589844 226.753906 70.808594 227.519531 C 68.007812 228.285156 66.351562 231.148438 67.113281 233.953125 L 80.386719 282.960938 C 80.386719 283.003906 80.40625 283.027344 80.429688 283.066406 L 82.46875 290.542969 C 84.058594 296.550781 86.734375 298.910156 94.464844 303.347656 L 141.199219 330.335938 C 147.0625 333.730469 149.078125 341.226562 145.703125 347.089844 Z M 145.703125 347.085938 " fill-opacity="1" fill-rule="nonzero"/><g clip-path="url(#c6d7cddb0a)"><path fill="#68afe2" d="M 356.34375 219.617188 C 351.121094 216.582031 344.984375 215.773438 339.125 217.347656 C 333.222656 218.917969 328.292969 222.675781 325.257812 227.941406 L 301.328125 269.410156 C 301.328125 269.328125 301.304688 269.261719 301.285156 269.179688 C 298.332031 258.222656 287.015625 251.679688 276.035156 254.632812 L 211.144531 272.023438 C 204.964844 273.339844 198.957031 277.691406 195.773438 283.148438 L 167.574219 332.050781 C 166.109375 334.558594 166.976562 337.765625 169.484375 339.207031 L 221.910156 369.488281 C 222.738281 369.976562 223.632812 370.1875 224.523438 370.1875 C 226.347656 370.1875 228.089844 369.253906 229.066406 367.578125 L 234.949219 357.425781 C 236.519531 354.710938 237.410156 354.242188 241.511719 352.945312 L 306.273438 335.597656 C 313.449219 333.644531 319.4375 329.035156 323.132812 322.601562 L 364.667969 250.683594 C 367.703125 245.4375 368.511719 239.300781 366.917969 233.421875 C 365.347656 227.539062 361.589844 222.632812 356.34375 219.617188 Z M 355.601562 245.4375 L 314.046875 317.359375 C 311.753906 321.371094 307.992188 324.261719 303.554688 325.472656 L 238.6875 342.839844 C 238.621094 342.863281 238.558594 342.882812 238.472656 342.902344 C 233.121094 344.582031 229.363281 346.132812 225.882812 352.183594 L 222.632812 357.789062 L 179.273438 332.753906 L 204.859375 288.398438 C 206.558594 285.464844 210.082031 282.941406 213.417969 282.261719 C 213.523438 282.238281 213.609375 282.21875 213.714844 282.195312 L 278.753906 264.761719 C 284.148438 263.320312 289.710938 266.527344 291.15625 271.898438 C 292.554688 277.183594 289.433594 282.449219 284.0625 283.917969 C 284.019531 283.917969 284 283.9375 283.976562 283.9375 L 235.226562 297.144531 C 232.421875 297.910156 230.765625 300.777344 231.53125 303.578125 C 232.167969 305.914062 234.269531 307.445312 236.585938 307.445312 C 237.050781 307.445312 237.496094 307.402344 237.964844 307.273438 L 286.972656 294.003906 C 286.992188 294.003906 287.015625 293.980469 287.035156 293.980469 L 294.574219 291.945312 C 300.5625 290.308594 302.917969 287.632812 307.378906 279.925781 L 334.34375 233.1875 C 335.980469 230.367188 338.632812 228.328125 341.820312 227.476562 C 344.984375 226.628906 348.273438 227.054688 351.097656 228.6875 C 353.921875 230.324219 355.941406 232.976562 356.8125 236.140625 C 357.640625 239.328125 357.214844 242.617188 355.601562 245.441406 Z M 355.601562 245.4375 " fill-opacity="1" fill-rule="nonzero"/></g><g clip-path="url(#fc0ac79559)"><path fill="#68afe2" d="M 371.609375 145.320312 L 361.441406 139.4375 C 358.742188 137.867188 358.277344 136.996094 356.980469 132.855469 L 339.609375 68.136719 C 337.699219 60.980469 333.09375 54.96875 326.636719 51.234375 L 254.695312 9.699219 C 249.429688 6.683594 243.292969 5.878906 237.410156 7.46875 C 231.550781 9.0625 226.644531 12.800781 223.652344 18.042969 C 220.617188 23.269531 219.808594 29.40625 221.378906 35.285156 C 222.953125 41.167969 226.710938 46.074219 231.953125 49.109375 L 273.425781 73.042969 C 273.359375 73.0625 273.296875 73.082031 273.210938 73.105469 C 267.925781 74.527344 263.488281 77.925781 260.726562 82.703125 C 257.96875 87.5 257.222656 93.042969 258.644531 98.332031 L 276.035156 163.242188 C 277.394531 169.445312 281.75 175.453125 287.183594 178.59375 L 336.085938 206.835938 C 336.894531 207.304688 337.785156 207.535156 338.699219 207.535156 C 339.167969 207.535156 339.613281 207.496094 340.058594 207.367188 C 341.417969 207.007812 342.5625 206.136719 343.242188 204.925781 L 373.523438 152.476562 C 374.96875 149.972656 374.117188 146.765625 371.613281 145.320312 Z M 336.789062 195.136719 L 292.429688 169.507812 C 289.5 167.828125 286.972656 164.304688 286.273438 160.949219 C 286.25 160.84375 286.230469 160.757812 286.207031 160.652344 L 268.773438 95.613281 C 267.332031 90.238281 270.535156 84.675781 275.929688 83.234375 C 276.78125 83 277.648438 82.894531 278.480469 82.894531 C 282.8125 82.894531 286.695312 85.800781 287.929688 90.304688 L 287.929688 90.324219 C 287.929688 90.347656 287.949219 90.367188 287.949219 90.386719 L 301.175781 139.164062 C 301.8125 141.5 303.917969 143.027344 306.230469 143.027344 C 306.699219 143.027344 307.144531 142.984375 307.609375 142.859375 C 310.414062 142.09375 312.050781 139.207031 311.304688 136.425781 L 298.011719 87.414062 C 297.992188 87.394531 297.992188 87.371094 297.992188 87.351562 L 295.953125 79.8125 C 294.320312 73.804688 291.644531 71.46875 283.9375 66.988281 L 237.199219 40.042969 C 234.375 38.40625 232.378906 35.753906 231.507812 32.566406 C 230.660156 29.402344 231.085938 26.089844 232.71875 23.265625 C 234.335938 20.464844 236.988281 18.445312 240.152344 17.597656 C 243.335938 16.746094 246.628906 17.171875 249.453125 18.785156 L 321.394531 60.320312 C 325.40625 62.65625 328.292969 66.394531 329.484375 70.832031 L 346.875 135.679688 C 346.894531 135.765625 346.917969 135.828125 346.9375 135.890625 C 348.613281 141.265625 350.164062 145.042969 356.195312 148.503906 L 361.824219 151.773438 L 336.789062 195.132812 Z M 336.789062 195.136719 " fill-opacity="1" fill-rule="nonzero"/></g><path fill="#68afe2" d="M 113.617188 132.644531 C 98.753906 147.527344 94.804688 176.746094 112.960938 194.878906 L 176.128906 258.050781 C 177.148438 259.070312 178.488281 259.582031 179.824219 259.582031 C 181.183594 259.582031 182.523438 259.070312 183.542969 258.050781 L 246.734375 194.878906 C 264.867188 176.746094 260.9375 147.527344 246.054688 132.644531 C 232.675781 119.265625 208.492188 114.914062 179.824219 141.285156 C 151.179688 114.933594 126.996094 119.265625 113.617188 132.644531 Z M 238.644531 140.074219 C 249.980469 151.414062 252.679688 174.09375 239.324219 187.46875 L 179.824219 246.925781 L 120.371094 187.46875 C 106.992188 174.09375 109.6875 151.414062 121.027344 140.054688 C 126.125 134.980469 132.261719 132.472656 139.035156 132.472656 C 150.140625 132.472656 163.050781 139.183594 176.128906 152.265625 C 177.105469 153.242188 178.445312 153.792969 179.824219 153.792969 C 181.226562 153.792969 182.5625 153.242188 183.542969 152.265625 C 204.605469 131.199219 225.203125 126.632812 238.644531 140.074219 Z M 238.644531 140.074219 " fill-opacity="1" fill-rule="nonzero"/><path fill="#68afe2" d="M 208.9375 31.144531 L 156.488281 0.863281 C 155.277344 0.164062 153.855469 -0.0273438 152.496094 0.335938 C 151.160156 0.695312 150.011719 1.566406 149.3125 2.777344 L 143.453125 12.945312 C 141.902344 15.644531 141.09375 16.089844 136.890625 17.425781 L 72.125 34.777344 C 65.011719 36.6875 59.023438 41.273438 55.246094 47.75 L 13.753906 119.691406 C 10.71875 124.914062 9.910156 131.050781 11.480469 136.933594 C 13.054688 142.816406 16.8125 147.71875 22.058594 150.757812 C 25.625 152.816406 29.53125 153.792969 33.394531 153.792969 C 41.253906 153.792969 48.917969 149.71875 53.121094 142.433594 L 77.074219 100.941406 C 77.09375 101.027344 77.117188 101.089844 77.136719 101.152344 C 78.539062 106.441406 81.9375 110.902344 86.714844 113.660156 C 91.492188 116.421875 97.054688 117.164062 102.339844 115.742188 L 167.277344 98.351562 C 173.496094 96.992188 179.507812 92.640625 182.605469 87.203125 L 210.847656 38.300781 C 211.550781 37.089844 211.742188 35.667969 211.378906 34.332031 C 211.019531 32.972656 210.148438 31.824219 208.9375 31.144531 Z M 173.519531 81.957031 C 171.839844 84.890625 168.339844 87.414062 164.984375 88.09375 C 164.878906 88.117188 164.792969 88.160156 164.6875 88.179688 L 99.625 105.613281 C 97.054688 106.3125 94.316406 105.929688 91.980469 104.574219 C 89.625 103.214844 87.945312 101.046875 87.265625 98.4375 C 86.566406 95.886719 86.925781 93.253906 88.242188 91.023438 C 89.558594 88.796875 91.726562 87.160156 94.335938 86.460938 C 94.378906 86.4375 94.402344 86.4375 94.421875 86.4375 L 143.175781 73.210938 C 145.980469 72.445312 147.613281 69.558594 146.871094 66.777344 C 146.105469 63.972656 143.21875 62.316406 140.4375 63.082031 L 91.449219 76.375 C 91.429688 76.375 91.40625 76.394531 91.386719 76.394531 L 83.804688 78.433594 C 77.816406 80.070312 75.480469 82.722656 71.023438 90.453125 L 44.035156 137.1875 C 40.65625 143.027344 33.160156 145.042969 27.300781 141.6875 C 24.476562 140.054688 22.460938 137.398438 21.609375 134.214844 C 20.761719 131.050781 21.1875 127.761719 22.820312 124.9375 L 64.332031 53.015625 C 66.691406 48.960938 70.40625 46.09375 74.84375 44.90625 L 139.714844 27.535156 C 139.800781 27.515625 139.886719 27.492188 139.949219 27.472656 C 145.300781 25.75 149.078125 24.203125 152.539062 18.191406 L 155.789062 12.5625 L 199.148438 37.597656 Z M 173.519531 81.957031 " fill-opacity="1" fill-rule="nonzero"/><path fill="#68afe2" d="M 130.351562 146.679688 C 125.847656 150.246094 122.9375 156.320312 122.558594 162.945312 C 122.175781 169.484375 124.257812 175.539062 128.269531 179.550781 C 129.289062 180.570312 130.625 181.078125 131.984375 181.078125 C 133.324219 181.078125 134.660156 180.570312 135.679688 179.550781 C 137.71875 177.488281 137.71875 174.175781 135.679688 172.140625 C 133.8125 170.269531 132.835938 167.0625 133.027344 163.5625 C 133.238281 159.929688 134.703125 156.617188 136.847656 154.917969 C 139.121094 153.136719 139.523438 149.824219 137.71875 147.550781 C 135.914062 145.277344 132.621094 144.894531 130.351562 146.679688 Z M 130.351562 146.679688 " fill-opacity="1" fill-rule="nonzero"/></svg>