<svg xmlns="http://www.w3.org/2000/svg" xmlns:xlink="http://www.w3.org/1999/xlink" width="500" zoomAndPan="magnify" viewBox="0 0 375 374.999991" height="500" preserveAspectRatio="xMidYMid meet" version="1.0"><path fill="#68afe2" d="M 375.144531 187.609375 C 375.144531 190.675781 375.070312 193.746094 374.921875 196.808594 C 374.769531 199.875 374.542969 202.9375 374.242188 205.992188 C 373.941406 209.042969 373.566406 212.089844 373.117188 215.125 C 372.664062 218.160156 372.140625 221.183594 371.542969 224.195312 C 370.945312 227.207031 370.273438 230.199219 369.527344 233.175781 C 368.78125 236.152344 367.960938 239.109375 367.070312 242.046875 C 366.179688 244.984375 365.21875 247.898438 364.183594 250.789062 C 363.148438 253.679688 362.046875 256.539062 360.871094 259.375 C 359.695312 262.210938 358.453125 265.015625 357.140625 267.792969 C 355.828125 270.566406 354.449219 273.304688 353 276.011719 C 351.554688 278.71875 350.042969 281.390625 348.464844 284.023438 C 346.886719 286.65625 345.246094 289.246094 343.539062 291.796875 C 341.835938 294.351562 340.070312 296.859375 338.238281 299.324219 C 336.410156 301.789062 334.523438 304.207031 332.578125 306.582031 C 330.628906 308.953125 328.625 311.277344 326.566406 313.550781 C 324.503906 315.824219 322.386719 318.046875 320.21875 320.21875 C 318.046875 322.386719 315.824219 324.503906 313.550781 326.566406 C 311.277344 328.625 308.953125 330.628906 306.582031 332.578125 C 304.207031 334.523438 301.789062 336.410156 299.324219 338.238281 C 296.859375 340.070312 294.351562 341.835938 291.796875 343.539062 C 289.246094 345.246094 286.65625 346.886719 284.023438 348.464844 C 281.390625 350.042969 278.71875 351.554688 276.011719 353 C 273.304688 354.449219 270.566406 355.828125 267.792969 357.140625 C 265.015625 358.453125 262.210938 359.695312 259.375 360.871094 C 256.539062 362.046875 253.679688 363.148438 250.789062 364.183594 C 247.898438 365.21875 244.984375 366.179688 242.046875 367.070312 C 239.109375 367.960938 236.152344 368.78125 233.175781 369.527344 C 230.199219 370.273438 227.207031 370.945312 224.195312 371.542969 C 221.183594 372.140625 218.160156 372.664062 215.125 373.117188 C 212.089844 373.566406 209.042969 373.941406 205.992188 374.242188 C 202.9375 374.542969 199.875 374.769531 196.8125 374.921875 C 193.746094 375.070312 190.675781 375.144531 187.609375 375.144531 C 184.539062 375.144531 181.472656 375.070312 178.40625 374.921875 C 175.339844 374.769531 172.28125 374.542969 169.226562 374.242188 C 166.171875 373.941406 163.128906 373.566406 160.089844 373.117188 C 157.054688 372.664062 154.03125 372.140625 151.023438 371.542969 C 148.011719 370.945312 145.019531 370.273438 142.039062 369.527344 C 139.0625 368.78125 136.105469 367.960938 133.167969 367.070312 C 130.230469 366.179688 127.320312 365.21875 124.429688 364.183594 C 121.539062 363.148438 118.675781 362.046875 115.839844 360.871094 C 113.003906 359.695312 110.199219 358.453125 107.425781 357.140625 C 104.652344 355.828125 101.910156 354.449219 99.203125 353 C 96.496094 351.554688 93.828125 350.042969 91.195312 348.464844 C 88.5625 346.886719 85.96875 345.246094 83.417969 343.539062 C 80.867188 341.835938 78.359375 340.070312 75.890625 338.238281 C 73.425781 336.410156 71.007812 334.523438 68.636719 332.578125 C 66.261719 330.628906 63.941406 328.625 61.664062 326.566406 C 59.390625 324.503906 57.167969 322.386719 55 320.21875 C 52.828125 318.046875 50.714844 315.824219 48.652344 313.550781 C 46.589844 311.277344 44.585938 308.953125 42.640625 306.582031 C 40.691406 304.207031 38.804688 301.789062 36.976562 299.324219 C 35.148438 296.859375 33.382812 294.351562 31.675781 291.796875 C 29.972656 289.246094 28.328125 286.65625 26.753906 284.023438 C 25.175781 281.390625 23.660156 278.71875 22.214844 276.011719 C 20.769531 273.304688 19.390625 270.566406 18.078125 267.792969 C 16.765625 265.015625 15.519531 262.210938 14.347656 259.375 C 13.171875 256.539062 12.066406 253.679688 11.035156 250.789062 C 10 247.898438 9.039062 244.984375 8.144531 242.046875 C 7.253906 239.109375 6.4375 236.152344 5.691406 233.175781 C 4.945312 230.199219 4.273438 227.207031 3.675781 224.195312 C 3.074219 221.183594 2.550781 218.160156 2.101562 215.125 C 1.648438 212.089844 1.273438 209.042969 0.972656 205.992188 C 0.671875 202.9375 0.449219 199.875 0.296875 196.8125 C 0.144531 193.746094 0.0703125 190.675781 0.0703125 187.609375 C 0.0703125 184.539062 0.144531 181.472656 0.296875 178.40625 C 0.449219 175.339844 0.671875 172.28125 0.972656 169.226562 C 1.273438 166.171875 1.648438 163.128906 2.101562 160.089844 C 2.550781 157.054688 3.074219 154.03125 3.675781 151.023438 C 4.273438 148.011719 4.945312 145.019531 5.691406 142.039062 C 6.4375 139.0625 7.253906 136.105469 8.144531 133.167969 C 9.039062 130.230469 10 127.320312 11.035156 124.429688 C 12.066406 121.539062 13.171875 118.675781 14.347656 115.839844 C 15.519531 113.003906 16.765625 110.199219 18.078125 107.425781 C 19.390625 104.652344 20.769531 101.910156 22.214844 99.203125 C 23.660156 96.496094 25.175781 93.828125 26.753906 91.195312 C 28.328125 88.5625 29.972656 85.96875 31.675781 83.417969 C 33.382812 80.867188 35.148438 78.359375 36.976562 75.890625 C 38.804688 73.425781 40.691406 71.007812 42.640625 68.636719 C 44.585938 66.261719 46.589844 63.941406 48.652344 61.664062 C 50.714844 59.390625 52.828125 57.167969 55 55 C 57.167969 52.828125 59.390625 50.714844 61.664062 48.652344 C 63.941406 46.589844 66.261719 44.585938 68.636719 42.640625 C 71.007812 40.691406 73.425781 38.804688 75.890625 36.976562 C 78.359375 35.148438 80.867188 33.382812 83.417969 31.675781 C 85.96875 29.972656 88.5625 28.328125 91.195312 26.753906 C 93.828125 25.175781 96.496094 23.660156 99.203125 22.214844 C 101.910156 20.769531 104.652344 19.390625 107.425781 18.078125 C 110.199219 16.765625 113.003906 15.519531 115.839844 14.347656 C 118.675781 13.171875 121.539062 12.066406 124.429688 11.035156 C 127.320312 10 130.230469 9.039062 133.167969 8.144531 C 136.105469 7.253906 139.0625 6.4375 142.039062 5.691406 C 145.019531 4.945312 148.011719 4.273438 151.023438 3.675781 C 154.03125 3.074219 157.054688 2.550781 160.089844 2.101562 C 163.128906 1.648438 166.171875 1.273438 169.226562 0.972656 C 172.28125 0.671875 175.339844 0.449219 178.40625 0.296875 C 181.472656 0.144531 184.539062 0.0703125 187.609375 0.0703125 C 190.675781 0.0703125 193.746094 0.144531 196.808594 0.296875 C 199.875 0.449219 202.9375 0.671875 205.992188 0.972656 C 209.042969 1.273438 212.089844 1.648438 215.125 2.101562 C 218.160156 2.550781 221.183594 3.074219 224.195312 3.675781 C 227.207031 4.273438 230.199219 4.945312 233.175781 5.691406 C 236.152344 6.4375 239.109375 7.253906 242.046875 8.144531 C 244.984375 9.039062 247.898438 10 250.789062 11.035156 C 253.679688 12.066406 256.539062 13.171875 259.375 14.347656 C 262.210938 15.519531 265.015625 16.765625 267.792969 18.078125 C 270.566406 19.390625 273.304688 20.769531 276.011719 22.214844 C 278.71875 23.660156 281.390625 25.175781 284.023438 26.753906 C 286.65625 28.328125 289.246094 29.972656 291.796875 31.675781 C 294.351562 33.382812 296.859375 35.148438 299.324219 36.976562 C 301.789062 38.804688 304.207031 40.691406 306.582031 42.640625 C 308.953125 44.585938 311.277344 46.589844 313.550781 48.652344 C 315.824219 50.714844 318.046875 52.828125 320.21875 55 C 322.386719 57.167969 324.503906 59.390625 326.566406 61.664062 C 328.625 63.941406 330.628906 66.261719 332.578125 68.636719 C 334.523438 71.007812 336.410156 73.425781 338.238281 75.890625 C 340.070312 78.359375 341.835938 80.867188 343.539062 83.417969 C 345.246094 85.96875 346.886719 88.5625 348.464844 91.195312 C 350.042969 93.828125 351.554688 96.496094 353 99.203125 C 354.449219 101.910156 355.828125 104.652344 357.140625 107.425781 C 358.453125 110.199219 359.695312 113.003906 360.871094 115.839844 C 362.046875 118.675781 363.148438 121.539062 364.183594 124.429688 C 365.21875 127.320312 366.179688 130.230469 367.070312 133.167969 C 367.960938 136.105469 368.78125 139.0625 369.527344 142.039062 C 370.273438 145.019531 370.945312 148.011719 371.542969 151.023438 C 372.140625 154.03125 372.664062 157.054688 373.117188 160.089844 C 373.566406 163.128906 373.941406 166.171875 374.242188 169.226562 C 374.542969 172.28125 374.769531 175.339844 374.921875 178.40625 C 375.070312 181.472656 375.144531 184.539062 375.144531 187.609375 Z M 375.144531 187.609375 " fill-opacity="1" fill-rule="nonzero"/><path fill="#fefefe" d="M 226.234375 285.042969 C 212.636719 285.042969 201.453125 276.660156 194.425781 261.039062 C 193.828125 259.703125 194.421875 258.140625 195.753906 257.539062 C 197.082031 256.941406 198.644531 257.535156 199.246094 258.867188 C 206.097656 274.097656 216.761719 281.230469 230.070312 279.5 C 250.96875 276.78125 274.292969 252.632812 278.070312 229.808594 C 279.609375 220.527344 278.335938 207.941406 263.546875 200.664062 C 262.242188 200.019531 261.703125 198.433594 262.347656 197.125 C 262.992188 195.8125 264.578125 195.273438 265.882812 195.917969 C 279.691406 202.714844 285.871094 215.058594 283.289062 230.671875 C 281.351562 242.378906 274.496094 255.105469 264.488281 265.59375 C 254.265625 276.304688 241.972656 283.285156 230.753906 284.746094 C 229.222656 284.941406 227.710938 285.042969 226.234375 285.042969 Z M 226.234375 285.042969 " fill-opacity="1" fill-rule="evenodd"/><path fill="#fefefe" d="M 148.976562 285.042969 C 147.5 285.042969 145.996094 284.941406 144.464844 284.746094 C 133.246094 283.285156 120.945312 276.308594 110.722656 265.59375 C 100.714844 255.105469 93.863281 242.378906 91.925781 230.671875 C 89.339844 215.058594 95.519531 202.714844 109.328125 195.917969 C 110.640625 195.273438 112.226562 195.8125 112.871094 197.125 C 113.515625 198.433594 112.976562 200.019531 111.664062 200.664062 C 96.882812 207.941406 95.609375 220.527344 97.144531 229.808594 C 100.917969 252.632812 124.25 276.78125 145.140625 279.5 C 146.449219 279.671875 147.730469 279.753906 148.980469 279.753906 C 160.511719 279.753906 169.785156 272.605469 175.964844 258.867188 C 176.566406 257.535156 178.128906 256.941406 179.460938 257.539062 C 180.792969 258.140625 181.386719 259.707031 180.789062 261.039062 C 173.761719 276.660156 162.574219 285.042969 148.976562 285.042969 Z M 148.976562 285.042969 " fill-opacity="1" fill-rule="evenodd"/><path fill="#fefefe" d="M 174.003906 200.933594 L 108.921875 200.933594 C 108.890625 200.933594 108.851562 200.933594 108.816406 200.933594 C 100.414062 200.589844 94.039062 198.085938 89.867188 193.488281 C 83.007812 185.921875 83.660156 174.441406 84.097656 166.847656 C 84.234375 164.367188 84.433594 160.972656 84.046875 160.164062 C 70.253906 138.242188 64.542969 123.476562 67.109375 116.316406 C 68.058594 113.660156 69.816406 112.894531 70.332031 112.71875 C 70.371094 112.707031 70.410156 112.695312 70.449219 112.6875 C 91.753906 106.65625 112.976562 110.117188 133.527344 122.992188 C 147.582031 131.792969 161.347656 145.0625 174.445312 162.429688 C 175.320312 163.597656 175.089844 165.253906 173.925781 166.128906 C 172.761719 167.011719 171.101562 166.78125 170.21875 165.613281 C 139.144531 124.402344 106.207031 108.269531 72.308594 117.652344 C 71.765625 118.53125 68.695312 125.832031 88.546875 157.382812 C 89.8125 159.40625 89.636719 162.484375 89.375 167.144531 C 88.972656 174.265625 88.414062 184.007812 93.785156 189.9375 C 96.960938 193.433594 102.070312 195.355469 108.976562 195.648438 L 174.003906 195.648438 C 175.464844 195.648438 176.648438 196.832031 176.648438 198.292969 C 176.648438 199.75 175.464844 200.933594 174.003906 200.933594 Z M 308.703125 120.320312 L 308.703125 120.109375 C 308.695312 118.671875 308.496094 117.40625 308.109375 116.316406 C 307.15625 113.660156 305.398438 112.894531 304.886719 112.71875 C 304.847656 112.707031 304.808594 112.695312 304.769531 112.6875 C 283.460938 106.65625 262.238281 110.117188 241.6875 122.992188 C 227.628906 131.792969 213.867188 145.0625 200.769531 162.429688 C 199.890625 163.597656 200.125 165.253906 201.292969 166.128906 C 202.453125 167.011719 204.113281 166.78125 204.992188 165.613281 C 236.070312 124.402344 269.011719 108.269531 302.902344 117.652344 C 303.449219 118.53125 306.515625 125.839844 286.664062 157.390625 C 285.398438 159.40625 285.574219 162.484375 285.839844 167.144531 C 286.246094 174.265625 286.804688 184.007812 281.425781 189.9375 C 278.253906 193.433594 273.144531 195.355469 266.238281 195.648438 L 201.207031 195.648438 C 199.75 195.648438 198.566406 196.832031 198.566406 198.292969 C 198.566406 199.75 199.75 200.933594 201.210938 200.933594 L 266.292969 200.933594 C 266.328125 200.933594 266.363281 200.933594 266.402344 200.933594 C 274.800781 200.589844 281.179688 198.085938 285.34375 193.488281 C 292.207031 185.921875 291.550781 174.441406 291.117188 166.847656 C 290.976562 164.367188 290.789062 160.972656 291.144531 160.203125 C 302.757812 141.746094 308.644531 128.367188 308.703125 120.320312 Z M 308.703125 120.320312 " fill-opacity="1" fill-rule="evenodd"/><path fill="#fefefe" d="M 180.851562 258.984375 C 183.375 263.808594 186.210938 269.246094 187.609375 270.347656 C 189.003906 269.246094 191.839844 263.816406 194.363281 258.992188 C 214.808594 219.816406 194.917969 191.964844 194.714844 191.6875 C 193.957031 190.65625 194.046875 189.230469 194.921875 188.300781 C 209.085938 173.367188 196.238281 155.851562 195.6875 155.121094 C 195.179688 154.429688 195.023438 153.539062 195.28125 152.722656 C 197.246094 146.558594 197.191406 141.90625 195.136719 139.269531 C 192.683594 136.113281 187.828125 136.367188 187.78125 136.371094 C 187.664062 136.375 187.539062 136.375 187.417969 136.367188 C 187.386719 136.363281 182.53125 136.113281 180.074219 139.269531 C 178.019531 141.90625 177.96875 146.558594 179.929688 152.722656 C 180.195312 153.542969 180.039062 154.4375 179.523438 155.121094 C 178.972656 155.851562 166.128906 173.367188 180.289062 188.300781 C 181.171875 189.230469 181.257812 190.65625 180.503906 191.6875 C 180.453125 191.753906 175.390625 198.796875 172.929688 210.570312 C 169.636719 226.3125 172.300781 242.597656 180.851562 258.984375 Z M 187.605469 275.746094 C 187.605469 275.746094 187.609375 275.746094 187.601562 275.746094 C 183.632812 275.746094 181.292969 271.257812 176.164062 261.429688 C 164.726562 239.507812 165.308594 220.929688 167.8125 209.203125 C 169.800781 199.882812 173.246094 193.351562 175.050781 190.371094 C 168.976562 183.105469 167.003906 174.335938 169.355469 164.886719 C 170.734375 159.34375 173.238281 155.03125 174.515625 153.078125 C 172.378906 145.640625 172.851562 139.890625 175.9375 135.972656 C 179.835938 131.023438 186.386719 131.035156 187.609375 131.082031 C 188.824219 131.039062 195.378906 131.023438 199.273438 135.972656 C 202.359375 139.890625 202.839844 145.640625 200.703125 153.078125 C 201.980469 155.03125 204.484375 159.34375 205.863281 164.886719 C 208.210938 174.335938 206.238281 183.105469 200.160156 190.371094 C 201.96875 193.355469 205.410156 199.890625 207.398438 209.207031 C 209.90625 220.933594 210.488281 239.515625 199.050781 261.4375 C 193.921875 271.261719 191.582031 275.746094 187.605469 275.746094 Z M 187.605469 275.746094 " fill-opacity="1" fill-rule="evenodd"/><path fill="#fefefe" d="M 180.515625 138.066406 C 179.152344 138.066406 177.992188 137.019531 177.882812 135.636719 C 177.847656 135.246094 175.09375 103.800781 158.390625 95.164062 C 157.097656 94.492188 156.585938 92.902344 157.253906 91.601562 C 157.925781 90.304688 159.523438 89.800781 160.816406 90.464844 C 180.152344 100.46875 183.039062 133.796875 183.152344 135.214844 C 183.269531 136.667969 182.183594 137.945312 180.722656 138.0625 C 180.652344 138.066406 180.582031 138.066406 180.515625 138.066406 Z M 180.515625 138.066406 " fill-opacity="1" fill-rule="evenodd"/><path fill="#fefefe" d="M 194.703125 138.066406 C 194.632812 138.066406 194.558594 138.066406 194.488281 138.0625 C 193.035156 137.945312 191.949219 136.667969 192.066406 135.214844 C 192.175781 133.796875 195.066406 100.46875 214.394531 90.464844 C 215.695312 89.800781 217.285156 90.304688 217.957031 91.601562 C 218.628906 92.902344 218.117188 94.492188 216.824219 95.164062 C 200.074219 103.828125 197.359375 135.316406 197.335938 135.636719 C 197.226562 137.019531 196.0625 138.066406 194.703125 138.066406 Z M 194.703125 138.066406 " fill-opacity="1" fill-rule="evenodd"/><path fill="#fefefe" d="M 110.5 200.933594 C 110.28125 200.933594 110.066406 200.90625 109.847656 200.851562 C 108.429688 200.496094 107.574219 199.058594 107.933594 197.640625 C 115.523438 167.703125 109.28125 139.59375 89.394531 114.085938 C 88.5 112.925781 88.703125 111.269531 89.851562 110.371094 C 91.003906 109.472656 92.667969 109.679688 93.566406 110.828125 C 114.507812 137.699219 121.066406 167.339844 113.058594 198.941406 C 112.757812 200.136719 111.679688 200.933594 110.5 200.933594 Z M 110.5 200.933594 " fill-opacity="1" fill-rule="evenodd"/><path fill="#fefefe" d="M 264.71875 200.933594 C 263.539062 200.933594 262.457031 200.136719 262.15625 198.941406 C 254.144531 167.339844 260.707031 137.699219 281.648438 110.828125 C 282.546875 109.679688 284.207031 109.472656 285.359375 110.371094 C 286.511719 111.269531 286.71875 112.929688 285.824219 114.085938 C 265.933594 139.59375 259.699219 167.707031 267.28125 197.640625 C 267.640625 199.058594 266.78125 200.496094 265.367188 200.851562 C 265.152344 200.90625 264.929688 200.933594 264.71875 200.933594 Z M 264.71875 200.933594 " fill-opacity="1" fill-rule="evenodd"/></svg>