<svg xmlns="http://www.w3.org/2000/svg" xmlns:xlink="http://www.w3.org/1999/xlink" width="45" height="45" zoomAndPan="magnify" viewBox="0 0 375 374.999991" preserveAspectRatio="xMidYMid meet" version="1.0">
  <defs>
    <clipPath id="efd4ff5af4">
      <path d="M 2.824219 0 L 374.824219 0 L 374.824219 372 L 2.824219 372 Z M 2.824219 0 " clip-rule="nonzero" />
    </clipPath>
  </defs>
  <rect x="-37.5" width="100" fill="#ffffff" y="-37.499999" height="100" fill-opacity="1" />
  <rect x="-37.5" width="100" fill="#ffffff" y="-37.499999" height="100" fill-opacity="1" />
  <g clip-path="url(#efd4ff5af4)">
    <path fill="#68afe2" d="M 188.910156 0 C 86.148438 0 2.824219 83.324219 2.824219 186.085938 C 2.824219 288.851562 86.148438 372.175781 188.910156 372.175781 C 291.671875 372.175781 375 288.851562 375 186.085938 C 375 83.324219 291.671875 0 188.910156 0 Z M 293.640625 157.367188 L 184.761719 266.246094 C 179.519531 271.488281 172.421875 274.433594 164.996094 274.433594 C 157.675781 274.433594 150.578125 271.488281 145.335938 266.246094 L 90.953125 211.859375 C 80.03125 200.941406 80.03125 183.359375 90.953125 172.4375 C 101.875 161.625 119.347656 161.625 130.265625 172.4375 L 164.996094 207.273438 L 254.214844 118.050781 C 265.136719 107.132812 282.71875 107.132812 293.640625 118.050781 C 304.453125 128.863281 304.453125 146.445312 293.640625 157.367188 Z M 293.640625 157.367188 " fill-opacity="1" fill-rule="nonzero" />
  </g>
  <path fill="#ffffff" d="M 293.640625 157.367188 L 184.761719 266.246094 C 179.519531 271.488281 172.421875 274.433594 164.996094 274.433594 C 157.675781 274.433594 150.578125 271.488281 145.335938 266.246094 L 90.953125 211.859375 C 80.03125 200.941406 80.03125 183.359375 90.953125 172.4375 C 101.875 161.625 119.347656 161.625 130.265625 172.4375 L 164.996094 207.273438 L 254.214844 118.050781 C 265.136719 107.132812 282.71875 107.132812 293.640625 118.050781 C 304.453125 128.863281 304.453125 146.445312 293.640625 157.367188 Z M 293.640625 157.367188 " fill-opacity="1" fill-rule="nonzero" />
</svg>
