<svg xmlns="http://www.w3.org/2000/svg" xmlns:xlink="http://www.w3.org/1999/xlink" width="1920" zoomAndPan="magnify" viewBox="0 0 1440 809.999993" height="1080" preserveAspectRatio="xMidYMid meet" version="1.0"><defs><g/></defs><rect x="-144" width="1728" fill="#ffffff" y="-80.999999" height="971.999992" fill-opacity="1"/><rect x="-144" width="1728" fill="#ffffff" y="-80.999999" height="971.999992" fill-opacity="1"/><g fill="#383849" fill-opacity="1"><g transform="translate(221.486611, 332.07776)"><g><path d="M 101.328125 0 L 9.078125 0 L 9.078125 -24.40625 L 33.78125 -35.765625 L 33.78125 -166.90625 L 9.078125 -178.25 L 9.078125 -202.671875 L 101.328125 -202.671875 L 101.328125 -178.25 L 76.640625 -166.90625 L 76.640625 -35.765625 L 101.328125 -24.40625 Z M 101.328125 0 "/></g></g></g><g fill="#383849" fill-opacity="1"><g transform="translate(331.896838, 332.07776)"><g><path d="M 111.546875 -169.734375 C 95.085938 -169.734375 82.503906 -163.582031 73.796875 -151.28125 C 65.097656 -138.988281 60.75 -122.148438 60.75 -100.765625 C 60.75 -79.191406 64.769531 -62.488281 72.8125 -50.65625 C 80.851562 -38.832031 93.765625 -32.921875 111.546875 -32.921875 C 119.679688 -32.921875 127.910156 -33.867188 136.234375 -35.765625 C 144.566406 -37.660156 153.554688 -40.3125 163.203125 -43.71875 L 163.203125 -7.65625 C 154.316406 -4.0625 145.519531 -1.414062 136.8125 0.28125 C 128.101562 1.988281 118.359375 2.84375 107.578125 2.84375 C 86.566406 2.84375 69.34375 -1.457031 55.90625 -10.0625 C 42.476562 -18.675781 32.546875 -30.789062 26.109375 -46.40625 C 19.679688 -62.019531 16.46875 -80.234375 16.46875 -101.046875 C 16.46875 -121.484375 20.15625 -139.554688 27.53125 -155.265625 C 34.914062 -170.972656 45.65625 -183.269531 59.75 -192.15625 C 73.84375 -201.050781 91.109375 -205.5 111.546875 -205.5 C 121.578125 -205.5 131.65625 -204.222656 141.78125 -201.671875 C 151.90625 -199.117188 161.601562 -195.664062 170.875 -191.3125 L 156.96875 -156.390625 C 149.394531 -159.992188 141.773438 -163.117188 134.109375 -165.765625 C 126.453125 -168.410156 118.929688 -169.734375 111.546875 -169.734375 Z M 111.546875 -169.734375 "/></g></g></g><g fill="#383849" fill-opacity="1"><g transform="translate(512.69716, 332.07776)"><g><path d="M 25.546875 -202.671875 L 64.15625 -202.671875 L 64.15625 -104.734375 C 64.15625 -100.003906 64.054688 -94.707031 63.859375 -88.84375 C 63.671875 -82.976562 63.484375 -77.253906 63.296875 -71.671875 C 63.109375 -66.085938 62.921875 -61.257812 62.734375 -57.1875 C 62.546875 -53.125 62.351562 -50.335938 62.15625 -48.828125 L 63.015625 -48.828125 L 156.6875 -202.671875 L 208.0625 -202.671875 L 208.0625 0 L 169.734375 0 L 169.734375 -97.359375 C 169.734375 -102.460938 169.828125 -108.085938 170.015625 -114.234375 C 170.210938 -120.390625 170.453125 -126.304688 170.734375 -131.984375 C 171.015625 -137.660156 171.296875 -142.628906 171.578125 -146.890625 C 171.867188 -151.148438 172.109375 -153.941406 172.296875 -155.265625 L 171.15625 -155.265625 L 77.203125 0 L 25.546875 0 Z M 25.546875 -202.671875 "/></g></g></g><g fill="#383849" fill-opacity="1"><g transform="translate(746.290031, 332.07776)"><g><path d="M 189.328125 0 L 140.21875 0 L 93.09375 -76.640625 L 45.984375 0 L 0 0 L 67.265625 -104.453125 L 4.25 -202.671875 L 51.65625 -202.671875 L 95.375 -129.71875 L 138.234375 -202.671875 L 184.5 -202.671875 L 120.921875 -102.1875 Z M 189.328125 0 "/></g></g></g><g fill="#383849" fill-opacity="1"><g transform="translate(935.605245, 332.07776)"><g><path d="M 101.328125 0 L 9.078125 0 L 9.078125 -24.40625 L 33.78125 -35.765625 L 33.78125 -166.90625 L 9.078125 -178.25 L 9.078125 -202.671875 L 101.328125 -202.671875 L 101.328125 -178.25 L 76.640625 -166.90625 L 76.640625 -35.765625 L 101.328125 -24.40625 Z M 101.328125 0 "/></g></g></g><g fill="#383849" fill-opacity="1"><g transform="translate(1046.015512, 332.07776)"><g><path d="M 93.671875 -77.765625 L 46.265625 0 L -1.421875 0 L 56.203125 -89.125 C 50.710938 -91.394531 45.222656 -94.753906 39.734375 -99.203125 C 34.242188 -103.648438 29.703125 -109.609375 26.109375 -117.078125 C 22.515625 -124.554688 20.71875 -133.785156 20.71875 -144.765625 C 20.71875 -163.492188 27.4375 -177.828125 40.875 -187.765625 C 54.3125 -197.703125 73.140625 -202.671875 97.359375 -202.671875 L 163.203125 -202.671875 L 163.203125 0 L 120.34375 0 L 120.34375 -77.765625 Z M 120.34375 -167.46875 L 99.0625 -167.46875 C 87.894531 -167.46875 79.285156 -165.476562 73.234375 -161.5 C 67.179688 -157.53125 64.15625 -150.910156 64.15625 -141.640625 C 64.15625 -132.742188 67.085938 -125.691406 72.953125 -120.484375 C 78.816406 -115.285156 87.898438 -112.6875 100.203125 -112.6875 L 120.34375 -112.6875 Z M 120.34375 -167.46875 "/></g></g></g><path stroke-linecap="butt" transform="matrix(3.881827, -0.000000000000000963, 0.000000000000000963, 3.881827, 221.486611, 369.497022)" fill="none" stroke-linejoin="miter" d="M 0.000430254 0.499888 L 213.847486 0.499888 " stroke="#383849" stroke-width="1" stroke-opacity="1" stroke-miterlimit="4"/><g fill="#383849" fill-opacity="1"><g transform="translate(221.486611, 473.91044)"><g><path d="M 72.625 -7.96875 L 72.625 18.96875 L 63.9375 18.96875 L 63.9375 0 L 9.78125 0 L 9.78125 -72.015625 L 18.859375 -72.015625 L 18.859375 -8.0625 L 54.875 -8.0625 L 54.875 -72.015625 L 63.84375 -72.015625 L 63.84375 -7.96875 Z M 72.625 -7.96875 "/></g></g></g><g fill="#383849" fill-opacity="1"><g transform="translate(296.224, 473.91044)"><g><path d="M 29.453125 -55.0625 C 34.023438 -55.0625 37.988281 -54.050781 41.34375 -52.03125 C 44.707031 -50.019531 47.28125 -47.179688 49.0625 -43.515625 C 50.84375 -39.859375 51.734375 -35.570312 51.734375 -30.65625 L 51.734375 -25.3125 L 14.71875 -25.3125 C 14.851562 -19.195312 16.414062 -14.539062 19.40625 -11.34375 C 22.40625 -8.15625 26.59375 -6.5625 31.96875 -6.5625 C 35.394531 -6.5625 38.4375 -6.878906 41.09375 -7.515625 C 43.75 -8.148438 46.488281 -9.070312 49.3125 -10.28125 L 49.3125 -2.515625 C 46.5625 -1.304688 43.835938 -0.414062 41.140625 0.15625 C 38.453125 0.726562 35.257812 1.015625 31.5625 1.015625 C 26.382812 1.015625 21.847656 -0.0234375 17.953125 -2.109375 C 14.054688 -4.203125 11.015625 -7.296875 8.828125 -11.390625 C 6.640625 -15.492188 5.546875 -20.570312 5.546875 -26.625 C 5.546875 -32.539062 6.535156 -37.613281 8.515625 -41.84375 C 10.503906 -46.082031 13.296875 -49.34375 16.890625 -51.625 C 20.492188 -53.914062 24.679688 -55.0625 29.453125 -55.0625 Z M 29.34375 -47.8125 C 25.113281 -47.8125 21.769531 -46.445312 19.3125 -43.71875 C 16.863281 -41 15.398438 -37.21875 14.921875 -32.375 L 42.46875 -32.375 C 42.394531 -36.945312 41.316406 -40.660156 39.234375 -43.515625 C 37.148438 -46.378906 33.851562 -47.8125 29.34375 -47.8125 Z M 29.34375 -47.8125 "/></g></g></g><g fill="#383849" fill-opacity="1"><g transform="translate(353.10915, 473.91044)"><g><path d="M 17.453125 -54.0625 L 17.453125 -31.5625 L 46.796875 -31.5625 L 46.796875 -54.0625 L 55.671875 -54.0625 L 55.671875 0 L 46.796875 0 L 46.796875 -24.109375 L 17.453125 -24.109375 L 17.453125 0 L 8.578125 0 L 8.578125 -54.0625 Z M 17.453125 -54.0625 "/></g></g></g><g fill="#383849" fill-opacity="1"><g transform="translate(417.357085, 473.91044)"><g><path d="M 45.890625 -46.59375 L 28.234375 -46.59375 L 28.234375 0 L 19.46875 0 L 19.46875 -46.59375 L 2.015625 -46.59375 L 2.015625 -54.0625 L 45.890625 -54.0625 Z M 45.890625 -46.59375 "/></g></g></g><g fill="#383849" fill-opacity="1"><g transform="translate(465.366542, 473.91044)"><g><path d="M 34.296875 -55.0625 C 40.953125 -55.0625 46.3125 -52.742188 50.375 -48.109375 C 54.445312 -43.472656 56.484375 -36.476562 56.484375 -27.125 C 56.484375 -17.914062 54.445312 -10.921875 50.375 -6.140625 C 46.3125 -1.367188 40.914062 1.015625 34.1875 1.015625 C 30.019531 1.015625 26.570312 0.242188 23.84375 -1.296875 C 21.125 -2.847656 18.992188 -4.703125 17.453125 -6.859375 L 16.84375 -6.859375 C 16.90625 -5.710938 17.019531 -4.265625 17.1875 -2.515625 C 17.363281 -0.773438 17.453125 0.734375 17.453125 2.015625 L 17.453125 24.203125 L 8.578125 24.203125 L 8.578125 -54.0625 L 15.828125 -54.0625 L 17.046875 -46.703125 L 17.453125 -46.703125 C 19.066406 -49.054688 21.179688 -51.035156 23.796875 -52.640625 C 26.421875 -54.253906 29.921875 -55.0625 34.296875 -55.0625 Z M 32.671875 -47.609375 C 27.160156 -47.609375 23.257812 -46.0625 20.96875 -42.96875 C 18.6875 -39.875 17.515625 -35.164062 17.453125 -28.84375 L 17.453125 -27.125 C 17.453125 -20.46875 18.539062 -15.34375 20.71875 -11.75 C 22.90625 -8.15625 26.957031 -6.359375 32.875 -6.359375 C 36.101562 -6.359375 38.789062 -7.25 40.9375 -9.03125 C 43.09375 -10.8125 44.691406 -13.28125 45.734375 -16.4375 C 46.773438 -19.601562 47.296875 -23.203125 47.296875 -27.234375 C 47.296875 -33.421875 46.101562 -38.363281 43.71875 -42.0625 C 41.332031 -45.757812 37.648438 -47.609375 32.671875 -47.609375 Z M 32.671875 -47.609375 "/></g></g></g><g fill="#383849" fill-opacity="1"><g transform="translate(527.395543, 473.91044)"><g/></g></g><g fill="#383849" fill-opacity="1"><g transform="translate(554.32518, 473.91044)"><g><path d="M 48.71875 -54.0625 L 48.71875 -7.46875 L 56.578125 -7.46875 L 56.578125 18.765625 L 48.015625 18.765625 L 48.015625 0 L 10.390625 0 L 10.390625 18.765625 L 1.921875 18.765625 L 1.921875 -7.46875 L 6.25 -7.46875 C 10.894531 -13.851562 14.375 -21.128906 16.6875 -29.296875 C 19.007812 -37.460938 20.203125 -45.71875 20.265625 -54.0625 Z M 40.140625 -47.09375 L 28.140625 -47.09375 C 27.804688 -42.53125 27.082031 -37.8125 25.96875 -32.9375 C 24.863281 -28.0625 23.421875 -23.40625 21.640625 -18.96875 C 19.859375 -14.53125 17.789062 -10.695312 15.4375 -7.46875 L 40.140625 -7.46875 Z M 40.140625 -47.09375 "/></g></g></g><g fill="#383849" fill-opacity="1"><g transform="translate(612.924947, 473.91044)"><g><path d="M 0.09375 -54.0625 L 9.578125 -54.0625 L 21.28125 -23.296875 C 22.289062 -20.535156 23.195312 -17.945312 24 -15.53125 C 24.8125 -13.113281 25.414062 -10.796875 25.8125 -8.578125 L 26.21875 -8.578125 C 26.625 -10.253906 27.265625 -12.453125 28.140625 -15.171875 C 29.015625 -17.898438 29.921875 -20.644531 30.859375 -23.40625 L 41.859375 -54.0625 L 51.4375 -54.0625 L 28.140625 7.46875 C 26.191406 12.570312 23.738281 16.632812 20.78125 19.65625 C 17.820312 22.6875 13.71875 24.203125 8.46875 24.203125 C 6.851562 24.203125 5.441406 24.117188 4.234375 23.953125 C 3.023438 23.785156 1.984375 23.601562 1.109375 23.40625 L 1.109375 16.34375 C 1.847656 16.476562 2.738281 16.609375 3.78125 16.734375 C 4.820312 16.867188 5.914062 16.9375 7.0625 16.9375 C 10.15625 16.9375 12.640625 16.0625 14.515625 14.3125 C 16.398438 12.570312 17.914062 10.253906 19.0625 7.359375 L 21.890625 0.203125 Z M 0.09375 -54.0625 "/></g></g></g><g fill="#383849" fill-opacity="1"><g transform="translate(664.363636, 473.91044)"><g><path d="M 21.375 -27.640625 L 2.71875 -54.0625 L 12.8125 -54.0625 L 26.734375 -33.6875 L 40.546875 -54.0625 L 50.53125 -54.0625 L 31.875 -27.640625 L 51.546875 0 L 41.453125 0 L 26.734375 -21.578125 L 11.796875 0 L 1.8125 0 Z M 21.375 -27.640625 "/></g></g></g><g fill="#383849" fill-opacity="1"><g transform="translate(717.718647, 473.91044)"><g><path d="M 55.578125 -27.125 C 55.578125 -18.1875 53.304688 -11.257812 48.765625 -6.34375 C 44.222656 -1.4375 38.085938 1.015625 30.359375 1.015625 C 25.585938 1.015625 21.332031 -0.078125 17.59375 -2.265625 C 13.863281 -4.453125 10.921875 -7.644531 8.765625 -11.84375 C 6.617188 -16.050781 5.546875 -21.144531 5.546875 -27.125 C 5.546875 -36.070312 7.78125 -42.960938 12.25 -47.796875 C 16.726562 -52.640625 22.863281 -55.0625 30.65625 -55.0625 C 35.5 -55.0625 39.800781 -53.96875 43.5625 -51.78125 C 47.332031 -49.601562 50.273438 -46.445312 52.390625 -42.3125 C 54.515625 -38.175781 55.578125 -33.113281 55.578125 -27.125 Z M 14.71875 -27.125 C 14.71875 -20.738281 15.976562 -15.679688 18.5 -11.953125 C 21.03125 -8.222656 25.050781 -6.359375 30.5625 -6.359375 C 36.007812 -6.359375 40.007812 -8.222656 42.5625 -11.953125 C 45.113281 -15.679688 46.390625 -20.738281 46.390625 -27.125 C 46.390625 -33.519531 45.113281 -38.53125 42.5625 -42.15625 C 40.007812 -45.789062 35.972656 -47.609375 30.453125 -47.609375 C 24.941406 -47.609375 20.941406 -45.789062 18.453125 -42.15625 C 15.960938 -38.53125 14.71875 -33.519531 14.71875 -27.125 Z M 14.71875 -27.125 "/></g></g></g><g fill="#383849" fill-opacity="1"><g transform="translate(778.739058, 473.91044)"><g><path d="M 52.046875 -40.4375 C 52.046875 -37.082031 51.035156 -34.460938 49.015625 -32.578125 C 46.992188 -30.691406 44.40625 -29.414062 41.25 -28.75 L 41.25 -28.34375 C 44.539062 -27.875 47.445312 -26.679688 49.96875 -24.765625 C 52.5 -22.847656 53.765625 -19.867188 53.765625 -15.828125 C 53.765625 -11.253906 52.066406 -7.472656 48.671875 -4.484375 C 45.273438 -1.492188 39.675781 0 31.875 0 L 8.578125 0 L 8.578125 -54.0625 L 31.765625 -54.0625 C 35.597656 -54.0625 39.046875 -53.640625 42.109375 -52.796875 C 45.171875 -51.960938 47.59375 -50.550781 49.375 -48.5625 C 51.15625 -46.582031 52.046875 -43.875 52.046875 -40.4375 Z M 43.0625 -39.328125 C 43.0625 -41.890625 42.132812 -43.757812 40.28125 -44.9375 C 38.4375 -46.113281 35.429688 -46.703125 31.265625 -46.703125 L 17.453125 -46.703125 L 17.453125 -31.875 L 29.65625 -31.875 C 38.59375 -31.875 43.0625 -34.359375 43.0625 -39.328125 Z M 44.578125 -15.828125 C 44.578125 -18.921875 43.398438 -21.140625 41.046875 -22.484375 C 38.691406 -23.835938 35.226562 -24.515625 30.65625 -24.515625 L 17.453125 -24.515625 L 17.453125 -7.15625 L 30.859375 -7.15625 C 35.296875 -7.15625 38.691406 -7.8125 41.046875 -9.125 C 43.398438 -10.4375 44.578125 -12.671875 44.578125 -15.828125 Z M 44.578125 -15.828125 "/></g></g></g><g fill="#383849" fill-opacity="1"><g transform="translate(836.834504, 473.91044)"><g><path d="M 17.453125 -54.0625 L 17.453125 -31.5625 L 46.796875 -31.5625 L 46.796875 -54.0625 L 55.671875 -54.0625 L 55.671875 0 L 46.796875 0 L 46.796875 -24.109375 L 17.453125 -24.109375 L 17.453125 0 L 8.578125 0 L 8.578125 -54.0625 Z M 17.453125 -54.0625 "/></g></g></g><g fill="#383849" fill-opacity="1"><g transform="translate(901.082438, 473.91044)"><g><path d="M 55.578125 -27.125 C 55.578125 -18.1875 53.304688 -11.257812 48.765625 -6.34375 C 44.222656 -1.4375 38.085938 1.015625 30.359375 1.015625 C 25.585938 1.015625 21.332031 -0.078125 17.59375 -2.265625 C 13.863281 -4.453125 10.921875 -7.644531 8.765625 -11.84375 C 6.617188 -16.050781 5.546875 -21.144531 5.546875 -27.125 C 5.546875 -36.070312 7.78125 -42.960938 12.25 -47.796875 C 16.726562 -52.640625 22.863281 -55.0625 30.65625 -55.0625 C 35.5 -55.0625 39.800781 -53.96875 43.5625 -51.78125 C 47.332031 -49.601562 50.273438 -46.445312 52.390625 -42.3125 C 54.515625 -38.175781 55.578125 -33.113281 55.578125 -27.125 Z M 14.71875 -27.125 C 14.71875 -20.738281 15.976562 -15.679688 18.5 -11.953125 C 21.03125 -8.222656 25.050781 -6.359375 30.5625 -6.359375 C 36.007812 -6.359375 40.007812 -8.222656 42.5625 -11.953125 C 45.113281 -15.679688 46.390625 -20.738281 46.390625 -27.125 C 46.390625 -33.519531 45.113281 -38.53125 42.5625 -42.15625 C 40.007812 -45.789062 35.972656 -47.609375 30.453125 -47.609375 C 24.941406 -47.609375 20.941406 -45.789062 18.453125 -42.15625 C 15.960938 -38.53125 14.71875 -33.519531 14.71875 -27.125 Z M 14.71875 -27.125 "/></g></g></g><g fill="#383849" fill-opacity="1"><g transform="translate(962.102849, 473.91044)"><g><path d="M 17.453125 0 L 8.578125 0 L 8.578125 -54.0625 L 17.453125 -54.0625 Z M -1.203125 -68.6875 C -1.203125 -70.4375 -0.75 -71.695312 0.15625 -72.46875 C 1.0625 -73.238281 2.1875 -73.625 3.53125 -73.625 C 4.8125 -73.625 5.921875 -73.238281 6.859375 -72.46875 C 7.804688 -71.695312 8.28125 -70.4375 8.28125 -68.6875 C 8.28125 -67 7.804688 -65.734375 6.859375 -64.890625 C 5.921875 -64.054688 4.8125 -63.640625 3.53125 -63.640625 C 2.1875 -63.640625 1.0625 -64.054688 0.15625 -64.890625 C -0.75 -65.734375 -1.203125 -67 -1.203125 -68.6875 Z M 17.75 -68.6875 C 17.75 -70.4375 18.203125 -71.695312 19.109375 -72.46875 C 20.023438 -73.238281 21.117188 -73.625 22.390625 -73.625 C 23.671875 -73.625 24.78125 -73.238281 25.71875 -72.46875 C 26.664062 -71.695312 27.140625 -70.4375 27.140625 -68.6875 C 27.140625 -67 26.664062 -65.734375 25.71875 -64.890625 C 24.78125 -64.054688 23.671875 -63.640625 22.390625 -63.640625 C 21.117188 -63.640625 20.023438 -64.054688 19.109375 -64.890625 C 18.203125 -65.734375 17.75 -67 17.75 -68.6875 Z M 17.75 -68.6875 "/></g></g></g><g fill="#383849" fill-opacity="1"><g transform="translate(988.124738, 473.91044)"><g/></g></g><g fill="#383849" fill-opacity="1"><g transform="translate(1015.054408, 473.91044)"><g><path d="M 17.453125 0 L 8.578125 0 L 8.578125 -54.0625 L 17.453125 -54.0625 Z M 17.453125 0 "/></g></g></g><g fill="#383849" fill-opacity="1"><g transform="translate(221.486611, 581.67438)"><g><path d="M 54.265625 -54.0625 L 54.265625 0 L 45.390625 0 L 45.390625 -46.5 L 17.453125 -46.5 L 17.453125 0 L 8.578125 0 L 8.578125 -54.0625 Z M 54.265625 -54.0625 "/></g></g></g><g fill="#383849" fill-opacity="1"><g transform="translate(284.423342, 581.67438)"><g><path d="M 30.265625 1.015625 C 25.421875 1.015625 21.148438 0.0390625 17.453125 -1.90625 C 13.753906 -3.863281 10.84375 -6.890625 8.71875 -10.984375 C 6.601562 -15.085938 5.546875 -20.335938 5.546875 -26.734375 C 5.546875 -33.390625 6.640625 -38.800781 8.828125 -42.96875 C 11.015625 -47.132812 14.019531 -50.191406 17.84375 -52.140625 C 21.675781 -54.085938 26.015625 -55.0625 30.859375 -55.0625 C 33.546875 -55.0625 36.179688 -54.773438 38.765625 -54.203125 C 41.359375 -53.640625 43.460938 -52.953125 45.078125 -52.140625 L 42.359375 -44.78125 C 40.742188 -45.382812 38.859375 -45.953125 36.703125 -46.484375 C 34.554688 -47.023438 32.539062 -47.296875 30.65625 -47.296875 C 20.03125 -47.296875 14.71875 -40.472656 14.71875 -26.828125 C 14.71875 -20.304688 16.007812 -15.3125 18.59375 -11.84375 C 21.1875 -8.382812 25.039062 -6.65625 30.15625 -6.65625 C 33.050781 -6.65625 35.640625 -6.957031 37.921875 -7.5625 C 40.210938 -8.164062 42.296875 -8.90625 44.171875 -9.78125 L 44.171875 -1.921875 C 42.359375 -0.972656 40.359375 -0.25 38.171875 0.25 C 35.984375 0.757812 33.347656 1.015625 30.265625 1.015625 Z M 30.265625 1.015625 "/></g></g></g><g fill="#383849" fill-opacity="1"><g transform="translate(332.836213, 581.67438)"><g><path d="M 16.9375 -54.0625 L 16.9375 -21.078125 C 16.9375 -20.203125 16.90625 -18.972656 16.84375 -17.390625 C 16.78125 -15.816406 16.695312 -14.207031 16.59375 -12.5625 C 16.488281 -10.914062 16.40625 -9.65625 16.34375 -8.78125 L 45.28125 -54.0625 L 56.171875 -54.0625 L 56.171875 0 L 47.90625 0 L 47.90625 -31.875 C 47.90625 -32.945312 47.921875 -34.359375 47.953125 -36.109375 C 47.992188 -37.859375 48.046875 -39.585938 48.109375 -41.296875 C 48.171875 -43.015625 48.238281 -44.3125 48.3125 -45.1875 L 19.5625 0 L 8.578125 0 L 8.578125 -54.0625 Z M 16.9375 -54.0625 "/></g></g></g><g fill="#383849" fill-opacity="1"><g transform="translate(397.689266, 581.67438)"><g><path d="M 21.375 -27.640625 L 2.71875 -54.0625 L 12.8125 -54.0625 L 26.734375 -33.6875 L 40.546875 -54.0625 L 50.53125 -54.0625 L 31.875 -27.640625 L 51.546875 0 L 41.453125 0 L 26.734375 -21.578125 L 11.796875 0 L 1.8125 0 Z M 21.375 -27.640625 "/></g></g></g><g fill="#383849" fill-opacity="1"><g transform="translate(451.044278, 581.67438)"><g><path d="M 55.578125 -27.125 C 55.578125 -18.1875 53.304688 -11.257812 48.765625 -6.34375 C 44.222656 -1.4375 38.085938 1.015625 30.359375 1.015625 C 25.585938 1.015625 21.332031 -0.078125 17.59375 -2.265625 C 13.863281 -4.453125 10.921875 -7.644531 8.765625 -11.84375 C 6.617188 -16.050781 5.546875 -21.144531 5.546875 -27.125 C 5.546875 -36.070312 7.78125 -42.960938 12.25 -47.796875 C 16.726562 -52.640625 22.863281 -55.0625 30.65625 -55.0625 C 35.5 -55.0625 39.800781 -53.96875 43.5625 -51.78125 C 47.332031 -49.601562 50.273438 -46.445312 52.390625 -42.3125 C 54.515625 -38.175781 55.578125 -33.113281 55.578125 -27.125 Z M 14.71875 -27.125 C 14.71875 -20.738281 15.976562 -15.679688 18.5 -11.953125 C 21.03125 -8.222656 25.050781 -6.359375 30.5625 -6.359375 C 36.007812 -6.359375 40.007812 -8.222656 42.5625 -11.953125 C 45.113281 -15.679688 46.390625 -20.738281 46.390625 -27.125 C 46.390625 -33.519531 45.113281 -38.53125 42.5625 -42.15625 C 40.007812 -45.789062 35.972656 -47.609375 30.453125 -47.609375 C 24.941406 -47.609375 20.941406 -45.789062 18.453125 -42.15625 C 15.960938 -38.53125 14.71875 -33.519531 14.71875 -27.125 Z M 14.71875 -27.125 "/></g></g></g><g fill="#383849" fill-opacity="1"><g transform="translate(512.064689, 581.67438)"><g><path d="M 49.71875 0 L 40.75 0 L 40.75 -46.703125 L 24.8125 -46.703125 C 23.9375 -35.335938 22.722656 -26.175781 21.171875 -19.21875 C 19.628906 -12.257812 17.5625 -7.195312 14.96875 -4.03125 C 12.382812 -0.875 9.175781 0.703125 5.34375 0.703125 C 4.46875 0.703125 3.609375 0.648438 2.765625 0.546875 C 1.929688 0.453125 1.242188 0.269531 0.703125 0 L 0.703125 -6.65625 C 1.109375 -6.519531 1.546875 -6.414062 2.015625 -6.34375 C 2.484375 -6.28125 2.953125 -6.25 3.421875 -6.25 C 7.054688 -6.25 9.96875 -10.113281 12.15625 -17.84375 C 14.34375 -25.582031 16.003906 -37.65625 17.140625 -54.0625 L 49.71875 -54.0625 Z M 49.71875 0 "/></g></g></g><g fill="#383849" fill-opacity="1"><g transform="translate(570.361841, 581.67438)"><g><path d="M 55.578125 -27.125 C 55.578125 -18.1875 53.304688 -11.257812 48.765625 -6.34375 C 44.222656 -1.4375 38.085938 1.015625 30.359375 1.015625 C 25.585938 1.015625 21.332031 -0.078125 17.59375 -2.265625 C 13.863281 -4.453125 10.921875 -7.644531 8.765625 -11.84375 C 6.617188 -16.050781 5.546875 -21.144531 5.546875 -27.125 C 5.546875 -36.070312 7.78125 -42.960938 12.25 -47.796875 C 16.726562 -52.640625 22.863281 -55.0625 30.65625 -55.0625 C 35.5 -55.0625 39.800781 -53.96875 43.5625 -51.78125 C 47.332031 -49.601562 50.273438 -46.445312 52.390625 -42.3125 C 54.515625 -38.175781 55.578125 -33.113281 55.578125 -27.125 Z M 14.71875 -27.125 C 14.71875 -20.738281 15.976562 -15.679688 18.5 -11.953125 C 21.03125 -8.222656 25.050781 -6.359375 30.5625 -6.359375 C 36.007812 -6.359375 40.007812 -8.222656 42.5625 -11.953125 C 45.113281 -15.679688 46.390625 -20.738281 46.390625 -27.125 C 46.390625 -33.519531 45.113281 -38.53125 42.5625 -42.15625 C 40.007812 -45.789062 35.972656 -47.609375 30.453125 -47.609375 C 24.941406 -47.609375 20.941406 -45.789062 18.453125 -42.15625 C 15.960938 -38.53125 14.71875 -33.519531 14.71875 -27.125 Z M 14.71875 -27.125 "/></g></g></g><g fill="#383849" fill-opacity="1"><g transform="translate(631.382252, 581.67438)"><g><path d="M 41.546875 -54.0625 L 41.546875 -46.59375 L 17.453125 -46.59375 L 17.453125 0 L 8.578125 0 L 8.578125 -54.0625 Z M 41.546875 -54.0625 "/></g></g></g><g fill="#383849" fill-opacity="1"><g transform="translate(675.054689, 581.67438)"><g><path d="M 17.453125 0 L 8.578125 0 L 8.578125 -54.0625 L 17.453125 -54.0625 Z M 17.453125 0 "/></g></g></g><g fill="#383849" fill-opacity="1"><g transform="translate(701.076594, 581.67438)"><g><path d="M 16.34375 -54.0625 L 16.34375 -34.390625 C 16.34375 -28.203125 19.804688 -25.109375 26.734375 -25.109375 C 30.085938 -25.109375 33.144531 -25.628906 35.90625 -26.671875 C 38.664062 -27.710938 41.488281 -29.109375 44.375 -30.859375 L 44.375 -54.0625 L 53.25 -54.0625 L 53.25 0 L 44.375 0 L 44.375 -24.109375 C 41.351562 -22.160156 38.378906 -20.628906 35.453125 -19.515625 C 32.523438 -18.410156 29.007812 -17.859375 24.90625 -17.859375 C 19.332031 -17.859375 15.03125 -19.300781 12 -22.1875 C 8.976562 -25.082031 7.46875 -28.945312 7.46875 -33.78125 L 7.46875 -54.0625 Z M 16.34375 -54.0625 "/></g></g></g><g fill="#383849" fill-opacity="1"><g transform="translate(762.903884, 581.67438)"><g><path d="M 17.453125 -54.0625 L 17.453125 -31.5625 L 46.796875 -31.5625 L 46.796875 -54.0625 L 55.671875 -54.0625 L 55.671875 0 L 46.796875 0 L 46.796875 -24.109375 L 17.453125 -24.109375 L 17.453125 0 L 8.578125 0 L 8.578125 -54.0625 Z M 17.453125 -54.0625 "/></g></g></g><g fill="#383849" fill-opacity="1"><g transform="translate(827.151818, 581.67438)"><g><path d="M 55.578125 -27.125 C 55.578125 -18.1875 53.304688 -11.257812 48.765625 -6.34375 C 44.222656 -1.4375 38.085938 1.015625 30.359375 1.015625 C 25.585938 1.015625 21.332031 -0.078125 17.59375 -2.265625 C 13.863281 -4.453125 10.921875 -7.644531 8.765625 -11.84375 C 6.617188 -16.050781 5.546875 -21.144531 5.546875 -27.125 C 5.546875 -36.070312 7.78125 -42.960938 12.25 -47.796875 C 16.726562 -52.640625 22.863281 -55.0625 30.65625 -55.0625 C 35.5 -55.0625 39.800781 -53.96875 43.5625 -51.78125 C 47.332031 -49.601562 50.273438 -46.445312 52.390625 -42.3125 C 54.515625 -38.175781 55.578125 -33.113281 55.578125 -27.125 Z M 14.71875 -27.125 C 14.71875 -20.738281 15.976562 -15.679688 18.5 -11.953125 C 21.03125 -8.222656 25.050781 -6.359375 30.5625 -6.359375 C 36.007812 -6.359375 40.007812 -8.222656 42.5625 -11.953125 C 45.113281 -15.679688 46.390625 -20.738281 46.390625 -27.125 C 46.390625 -33.519531 45.113281 -38.53125 42.5625 -42.15625 C 40.007812 -45.789062 35.972656 -47.609375 30.453125 -47.609375 C 24.941406 -47.609375 20.941406 -45.789062 18.453125 -42.15625 C 15.960938 -38.53125 14.71875 -33.519531 14.71875 -27.125 Z M 14.71875 -27.125 "/></g></g></g><g fill="#383849" fill-opacity="1"><g transform="translate(888.172229, 581.67438)"><g><path d="M 17.453125 0 L 8.578125 0 L 8.578125 -54.0625 L 17.453125 -54.0625 Z M -1.203125 -68.6875 C -1.203125 -70.4375 -0.75 -71.695312 0.15625 -72.46875 C 1.0625 -73.238281 2.1875 -73.625 3.53125 -73.625 C 4.8125 -73.625 5.921875 -73.238281 6.859375 -72.46875 C 7.804688 -71.695312 8.28125 -70.4375 8.28125 -68.6875 C 8.28125 -67 7.804688 -65.734375 6.859375 -64.890625 C 5.921875 -64.054688 4.8125 -63.640625 3.53125 -63.640625 C 2.1875 -63.640625 1.0625 -64.054688 0.15625 -64.890625 C -0.75 -65.734375 -1.203125 -67 -1.203125 -68.6875 Z M 17.75 -68.6875 C 17.75 -70.4375 18.203125 -71.695312 19.109375 -72.46875 C 20.023438 -73.238281 21.117188 -73.625 22.390625 -73.625 C 23.671875 -73.625 24.78125 -73.238281 25.71875 -72.46875 C 26.664062 -71.695312 27.140625 -70.4375 27.140625 -68.6875 C 27.140625 -67 26.664062 -65.734375 25.71875 -64.890625 C 24.78125 -64.054688 23.671875 -63.640625 22.390625 -63.640625 C 21.117188 -63.640625 20.023438 -64.054688 19.109375 -64.890625 C 18.203125 -65.734375 17.75 -67 17.75 -68.6875 Z M 17.75 -68.6875 "/></g></g></g><g fill="#383849" fill-opacity="1"><g transform="translate(221.486611, 689.43832)"><g><path d="M 54.265625 -54.0625 L 54.265625 0 L 45.390625 0 L 45.390625 -46.5 L 17.453125 -46.5 L 17.453125 0 L 8.578125 0 L 8.578125 -54.0625 Z M 54.265625 -54.0625 "/></g></g></g><g fill="#383849" fill-opacity="1"><g transform="translate(284.423342, 689.43832)"><g><path d="M 17.453125 0 L 8.578125 0 L 8.578125 -54.0625 L 17.453125 -54.0625 Z M 17.453125 0 "/></g></g></g><g fill="#383849" fill-opacity="1"><g transform="translate(310.445246, 689.43832)"><g><path d="M 48.71875 -54.0625 L 48.71875 -7.46875 L 56.578125 -7.46875 L 56.578125 18.765625 L 48.015625 18.765625 L 48.015625 0 L 10.390625 0 L 10.390625 18.765625 L 1.921875 18.765625 L 1.921875 -7.46875 L 6.25 -7.46875 C 10.894531 -13.851562 14.375 -21.128906 16.6875 -29.296875 C 19.007812 -37.460938 20.203125 -45.71875 20.265625 -54.0625 Z M 40.140625 -47.09375 L 28.140625 -47.09375 C 27.804688 -42.53125 27.082031 -37.8125 25.96875 -32.9375 C 24.863281 -28.0625 23.421875 -23.40625 21.640625 -18.96875 C 19.859375 -14.53125 17.789062 -10.695312 15.4375 -7.46875 L 40.140625 -7.46875 Z M 40.140625 -47.09375 "/></g></g></g><g fill="#383849" fill-opacity="1"><g transform="translate(369.045013, 689.43832)"><g><path d="M 45.890625 -46.59375 L 28.234375 -46.59375 L 28.234375 0 L 19.46875 0 L 19.46875 -46.59375 L 2.015625 -46.59375 L 2.015625 -54.0625 L 45.890625 -54.0625 Z M 45.890625 -46.59375 "/></g></g></g><g fill="#383849" fill-opacity="1"><g transform="translate(417.05447, 689.43832)"><g><path d="M 34.296875 -55.0625 C 40.953125 -55.0625 46.3125 -52.742188 50.375 -48.109375 C 54.445312 -43.472656 56.484375 -36.476562 56.484375 -27.125 C 56.484375 -17.914062 54.445312 -10.921875 50.375 -6.140625 C 46.3125 -1.367188 40.914062 1.015625 34.1875 1.015625 C 30.019531 1.015625 26.570312 0.242188 23.84375 -1.296875 C 21.125 -2.847656 18.992188 -4.703125 17.453125 -6.859375 L 16.84375 -6.859375 C 16.90625 -5.710938 17.019531 -4.265625 17.1875 -2.515625 C 17.363281 -0.773438 17.453125 0.734375 17.453125 2.015625 L 17.453125 24.203125 L 8.578125 24.203125 L 8.578125 -54.0625 L 15.828125 -54.0625 L 17.046875 -46.703125 L 17.453125 -46.703125 C 19.066406 -49.054688 21.179688 -51.035156 23.796875 -52.640625 C 26.421875 -54.253906 29.921875 -55.0625 34.296875 -55.0625 Z M 32.671875 -47.609375 C 27.160156 -47.609375 23.257812 -46.0625 20.96875 -42.96875 C 18.6875 -39.875 17.515625 -35.164062 17.453125 -28.84375 L 17.453125 -27.125 C 17.453125 -20.46875 18.539062 -15.34375 20.71875 -11.75 C 22.90625 -8.15625 26.957031 -6.359375 32.875 -6.359375 C 36.101562 -6.359375 38.789062 -7.25 40.9375 -9.03125 C 43.09375 -10.8125 44.691406 -13.28125 45.734375 -16.4375 C 46.773438 -19.601562 47.296875 -23.203125 47.296875 -27.234375 C 47.296875 -33.421875 46.101562 -38.363281 43.71875 -42.0625 C 41.332031 -45.757812 37.648438 -47.609375 32.671875 -47.609375 Z M 32.671875 -47.609375 "/></g></g></g><g fill="#383849" fill-opacity="1"><g transform="translate(479.08347, 689.43832)"><g><path d="M 16.9375 -54.0625 L 16.9375 -21.078125 C 16.9375 -20.203125 16.90625 -18.972656 16.84375 -17.390625 C 16.78125 -15.816406 16.695312 -14.207031 16.59375 -12.5625 C 16.488281 -10.914062 16.40625 -9.65625 16.34375 -8.78125 L 45.28125 -54.0625 L 56.171875 -54.0625 L 56.171875 0 L 47.90625 0 L 47.90625 -31.875 C 47.90625 -32.945312 47.921875 -34.359375 47.953125 -36.109375 C 47.992188 -37.859375 48.046875 -39.585938 48.109375 -41.296875 C 48.171875 -43.015625 48.238281 -44.3125 48.3125 -45.1875 L 19.5625 0 L 8.578125 0 L 8.578125 -54.0625 Z M 16.9375 -54.0625 "/></g></g></g><g fill="#383849" fill-opacity="1"><g transform="translate(543.936523, 689.43832)"><g><path d="M 66.5625 -54.0625 L 66.5625 0 L 58.59375 0 L 58.59375 -34.5 C 58.59375 -35.90625 58.644531 -37.363281 58.75 -38.875 C 58.851562 -40.394531 58.972656 -41.925781 59.109375 -43.46875 L 58.796875 -43.46875 L 41.15625 0 L 33.6875 0 L 16.546875 -43.46875 L 16.234375 -43.46875 C 16.441406 -40.445312 16.546875 -37.351562 16.546875 -34.1875 L 16.546875 0 L 8.578125 0 L 8.578125 -54.0625 L 20.375 -54.0625 L 37.421875 -10.59375 L 54.765625 -54.0625 Z M 66.5625 -54.0625 "/></g></g></g><g fill="#383849" fill-opacity="1"><g transform="translate(619.178179, 689.43832)"><g><path d="M 40.546875 -54.0625 L 50.234375 -54.0625 L 27.125 -28.03125 L 52.140625 0 L 41.859375 0 L 17.453125 -27.4375 L 17.453125 0 L 8.578125 0 L 8.578125 -54.0625 L 17.453125 -54.0625 L 17.453125 -27.84375 Z M 40.546875 -54.0625 "/></g></g></g><g fill="#383849" fill-opacity="1"><g transform="translate(672.53319, 689.43832)"><g><path d="M 16.9375 -54.0625 L 16.9375 -21.078125 C 16.9375 -20.203125 16.90625 -18.972656 16.84375 -17.390625 C 16.78125 -15.816406 16.695312 -14.207031 16.59375 -12.5625 C 16.488281 -10.914062 16.40625 -9.65625 16.34375 -8.78125 L 45.28125 -54.0625 L 56.171875 -54.0625 L 56.171875 0 L 47.90625 0 L 47.90625 -31.875 C 47.90625 -32.945312 47.921875 -34.359375 47.953125 -36.109375 C 47.992188 -37.859375 48.046875 -39.585938 48.109375 -41.296875 C 48.171875 -43.015625 48.238281 -44.3125 48.3125 -45.1875 L 19.5625 0 L 8.578125 0 L 8.578125 -54.0625 Z M 16.9375 -54.0625 "/></g></g></g></svg>