<svg xmlns="http://www.w3.org/2000/svg" xmlns:xlink="http://www.w3.org/1999/xlink" width="1920" zoomAndPan="magnify" viewBox="0 0 1440 809.999993" height="1080" preserveAspectRatio="xMidYMid meet" version="1.0"><defs><filter x="0%" y="0%" width="100%" height="100%" id="e0ca0955ae"><feColorMatrix values="0 0 0 0 1 0 0 0 0 1 0 0 0 0 1 0 0 0 1 0" color-interpolation-filters="sRGB"/></filter><g/><mask id="437a33c7d3"><g filter="url(#e0ca0955ae)"><rect x="-144" width="1728" fill="#000000" y="-80.999999" height="971.999992" fill-opacity="0.66"/></g></mask><clipPath id="71e2df42c8"><path d="M 0.625 0.984375 L 766.65625 0.984375 L 766.65625 767.015625 L 0.625 767.015625 Z M 0.625 0.984375 " clip-rule="nonzero"/></clipPath><clipPath id="ccbf49044c"><path d="M 383.640625 0.984375 C 172.109375 0.984375 0.625 172.464844 0.625 384 C 0.625 595.535156 172.109375 767.015625 383.640625 767.015625 C 595.175781 767.015625 766.65625 595.535156 766.65625 384 C 766.65625 172.464844 595.175781 0.984375 383.640625 0.984375 Z M 383.640625 0.984375 " clip-rule="nonzero"/></clipPath><clipPath id="184bd1054b"><rect x="0" width="767" y="0" height="768"/></clipPath><clipPath id="734a16dbcb"><path d="M 443.777344 150.882812 L 537 150.882812 L 537 347 L 443.777344 347 Z M 443.777344 150.882812 " clip-rule="nonzero"/></clipPath><clipPath id="5ee8a5814b"><path d="M 543 151 L 1040.777344 151 L 1040.777344 405 L 543 405 Z M 543 151 " clip-rule="nonzero"/></clipPath></defs><rect x="-144" width="1728" fill="#ffffff" y="-80.999999" height="971.999992" fill-opacity="1"/><rect x="-144" width="1728" fill="#ffffff" y="-80.999999" height="971.999992" fill-opacity="1"/><g mask="url(#437a33c7d3)"><g transform="matrix(1, 0, 0, 1, 346, 21)"><g clip-path="url(#184bd1054b)"><g clip-path="url(#71e2df42c8)"><g clip-path="url(#ccbf49044c)"><path fill="#000000" d="M 0.625 0.984375 L 766.65625 0.984375 L 766.65625 767.015625 L 0.625 767.015625 Z M 0.625 0.984375 " fill-opacity="1" fill-rule="nonzero"/></g></g></g></g></g><g clip-path="url(#734a16dbcb)"><path fill="#d9d9d9" d="M 536.976562 150.910156 L 467.601562 346.644531 L 443.777344 340.433594 Z M 536.976562 150.910156 " fill-opacity="1" fill-rule="evenodd"/></g><path fill="#d9d9d9" d="M 481.683594 362.53125 L 469.773438 362.53125 L 520.519531 242.914062 Z M 481.683594 362.53125 " fill-opacity="1" fill-rule="evenodd"/><path fill="#d9d9d9" d="M 525.167969 257.421875 L 499.804688 380.652344 L 489.433594 380.652344 Z M 525.167969 257.421875 " fill-opacity="1" fill-rule="evenodd"/><path fill="#d9d9d9" d="M 537.242188 277.875 L 549.882812 277.875 L 549.882812 303.117188 L 537.242188 303.117188 Z M 537.242188 277.875 " fill-opacity="1" fill-rule="evenodd"/><path fill="#d9d9d9" d="M 558.324219 277.875 L 570.964844 277.875 L 570.964844 303.117188 L 558.324219 303.117188 Z M 558.324219 277.875 " fill-opacity="1" fill-rule="evenodd"/><path fill="#d9d9d9" d="M 537.242188 246.300781 L 549.882812 246.300781 L 549.882812 271.566406 L 537.242188 271.566406 Z M 537.242188 246.300781 " fill-opacity="1" fill-rule="evenodd"/><path fill="#d9d9d9" d="M 558.324219 246.300781 L 570.964844 246.300781 L 570.964844 271.566406 L 558.324219 271.566406 Z M 558.324219 246.300781 " fill-opacity="1" fill-rule="evenodd"/><g clip-path="url(#5ee8a5814b)"><path fill="#1fa2c5" d="M 986.65625 341.570312 L 663.535156 341.570312 L 543.917969 151.359375 L 931.242188 151.359375 L 948.671875 181.53125 L 816.816406 181.53125 L 848.898438 204.722656 L 841.328125 223.980469 L 973.183594 223.980469 L 1041.058594 341.570312 L 1006.339844 341.570312 L 1027.625 378.441406 L 980.328125 378.441406 L 995.648438 404.960938 L 621.855469 404.960938 L 606.597656 328.988281 L 633.261719 391.445312 L 968.171875 391.445312 L 960.644531 378.441406 L 640.078125 378.441406 L 592.433594 269.65625 L 651.480469 364.925781 L 1000.152344 364.925781 Z M 986.65625 341.570312 " fill-opacity="1" fill-rule="evenodd"/></g><g fill="#e6e7e8" fill-opacity="1"><g transform="translate(411.00908, 537.351117)"><g><path d="M 53.359375 0 L 53.359375 -28.046875 C 51.097656 -26.921875 48.585938 -25.945312 45.828125 -25.125 C 43.066406 -24.3125 40.015625 -23.90625 36.671875 -23.90625 C 29.328125 -23.90625 23.332031 -25.273438 18.6875 -28.015625 C 14.039062 -30.753906 10.617188 -34.617188 8.421875 -39.609375 C 6.222656 -44.609375 5.125 -50.472656 5.125 -57.203125 L 5.125 -82.28125 L 19.9375 -82.28125 L 19.9375 -58.890625 C 19.9375 -54.460938 20.398438 -50.703125 21.328125 -47.609375 C 22.265625 -44.515625 23.945312 -42.171875 26.375 -40.578125 C 28.8125 -38.984375 32.242188 -38.1875 36.671875 -38.1875 C 39.671875 -38.1875 42.25 -38.554688 44.40625 -39.296875 C 46.5625 -40.035156 48.378906 -40.945312 49.859375 -42.03125 C 51.335938 -43.125 52.503906 -44.160156 53.359375 -45.140625 L 53.359375 -82.28125 L 68.171875 -82.28125 L 68.171875 0 Z M 53.359375 0 "/></g></g><g transform="translate(489.841409, 537.351117)"><g><path d="M 74.171875 0 L 59.9375 0 L 59.9375 -57.78125 L 25.421875 0 L 10.609375 0 L 10.609375 -82.390625 L 24.84375 -82.390625 L 24.84375 -24.71875 L 59.484375 -82.390625 L 74.171875 -82.390625 Z M 74.171875 0 "/></g></g><g transform="translate(574.621147, 537.351117)"><g><path d="M 27 0 L 27 -69.046875 L 1.171875 -69.046875 L 1.171875 -82.28125 L 67.578125 -82.28125 L 67.578125 -69.046875 L 41.8125 -69.046875 L 41.8125 0 Z M 27 0 "/></g></g><g transform="translate(643.424511, 537.351117)"><g><path d="M 0.703125 0 L 33.703125 -82.28125 L 44.78125 -82.28125 L 77.609375 0 L 61.640625 0 L 55.28125 -17.90625 L 23.265625 -17.90625 L 16.859375 0 Z M 28.28125 -30.5625 L 50.265625 -30.5625 L 39.296875 -60.53125 Z M 28.28125 -30.5625 "/></g></g><g transform="translate(721.732068, 537.351117)"><g><path d="M 0.703125 0 L 33.53125 -82.390625 L 44.671875 -82.390625 L 77.609375 0 L 61.28125 0 L 39.0625 -58.375 L 16.96875 0 Z M 0.703125 0 "/></g></g><g transform="translate(800.039625, 537.351117)"><g><path d="M 10.609375 0 L 10.609375 -82.28125 L 25.3125 -82.28125 L 25.3125 -48.109375 L 36.4375 -48.109375 C 40.644531 -48.109375 44.515625 -47.59375 48.046875 -46.5625 C 51.585938 -45.53125 54.671875 -43.992188 57.296875 -41.953125 C 59.921875 -39.910156 61.953125 -37.410156 63.390625 -34.453125 C 64.828125 -31.503906 65.546875 -28.101562 65.546875 -24.25 C 65.546875 -20.40625 64.828125 -16.976562 63.390625 -13.96875 C 61.953125 -10.957031 59.921875 -8.421875 57.296875 -6.359375 C 54.671875 -4.296875 51.585938 -2.71875 48.046875 -1.625 C 44.515625 -0.539062 40.644531 0 36.4375 0 Z M 25.3125 -13.875 L 36.4375 -13.875 C 41.457031 -13.875 45.113281 -14.773438 47.40625 -16.578125 C 49.695312 -18.390625 50.84375 -20.945312 50.84375 -24.25 C 50.84375 -27.519531 49.710938 -30.007812 47.453125 -31.71875 C 45.203125 -33.425781 41.53125 -34.28125 36.4375 -34.28125 L 25.3125 -34.28125 Z M 25.3125 -13.875 "/></g></g><g transform="translate(868.084986, 537.351117)"><g><path d="M 10.609375 0 L 10.609375 -82.390625 L 25.421875 -82.390625 L 25.421875 -47.984375 L 61.515625 -47.984375 L 61.515625 -82.390625 L 76.328125 -82.390625 L 76.328125 0 L 61.515625 0 L 61.515625 -34.40625 L 25.421875 -34.40625 L 25.421875 0 Z M 10.609375 0 "/></g></g><g transform="translate(955.022117, 537.351117)"><g><path d="M 63.328125 0.109375 L 48.515625 0.109375 L 48.515625 -35.21875 L 38.609375 -35.21875 L 18.3125 0.109375 L 1.34375 0.109375 L 24.25 -36.671875 C 21.144531 -37.765625 18.375 -39.332031 15.9375 -41.375 C 13.507812 -43.414062 11.601562 -45.851562 10.21875 -48.6875 C 8.84375 -51.53125 8.15625 -54.679688 8.15625 -58.140625 C 8.15625 -61.984375 8.914062 -65.410156 10.4375 -68.421875 C 11.957031 -71.441406 14.023438 -73.988281 16.640625 -76.0625 C 19.265625 -78.144531 22.296875 -79.71875 25.734375 -80.78125 C 29.179688 -81.851562 32.828125 -82.390625 36.671875 -82.390625 L 63.328125 -82.390625 Z M 48.40625 -47.296875 L 48.40625 -69.15625 L 36.5625 -69.15625 C 32.320312 -69.15625 28.96875 -68.132812 26.5 -66.09375 C 24.03125 -64.050781 22.796875 -61.320312 22.796875 -57.90625 C 22.796875 -54.832031 23.90625 -52.34375 26.125 -50.4375 C 28.34375 -48.53125 31.414062 -47.484375 35.34375 -47.296875 Z M 48.40625 -47.296875 "/></g></g></g><g fill="#1fa2c5" fill-opacity="1"><g transform="translate(527.728915, 595.236871)"><g><path d="M 3.96875 0 L 3.96875 -30.78125 L 9.515625 -30.78125 L 9.515625 0 Z M 3.96875 0 "/></g></g></g><g fill="#1fa2c5" fill-opacity="1"><g transform="translate(547.282736, 595.236871)"><g><path d="M 3.96875 0 L 3.96875 -30.828125 L 9.515625 -30.828125 L 9.515625 -17.953125 L 23.015625 -17.953125 L 23.015625 -30.828125 L 28.546875 -30.828125 L 28.546875 0 L 23.015625 0 L 23.015625 -12.875 L 9.515625 -12.875 L 9.515625 0 Z M 3.96875 0 "/></g></g></g><g fill="#1fa2c5" fill-opacity="1"><g transform="translate(585.872406, 595.236871)"><g><path d="M 10.09375 0 L 10.09375 -25.828125 L 0.4375 -25.828125 L 0.4375 -30.78125 L 25.28125 -30.78125 L 25.28125 -25.828125 L 15.640625 -25.828125 L 15.640625 0 Z M 10.09375 0 "/></g></g></g><g fill="#1fa2c5" fill-opacity="1"><g transform="translate(617.680684, 595.236871)"><g><path d="M 3.96875 0 L 3.96875 -30.828125 L 24.46875 -30.828125 L 24.46875 -25.734375 L 9.515625 -25.734375 L 9.515625 -17.953125 L 23.453125 -17.953125 L 23.453125 -12.875 L 9.515625 -12.875 L 9.515625 -5.234375 L 24.46875 -5.234375 L 24.46875 0 Z M 3.96875 0 "/></g></g></g><g fill="#1fa2c5" fill-opacity="1"><g transform="translate(650.906301, 595.236871)"><g><path d="M 3.96875 0 L 3.96875 -30.78125 L 13.625 -30.78125 C 15.195312 -30.78125 16.644531 -30.578125 17.96875 -30.171875 C 19.289062 -29.773438 20.441406 -29.1875 21.421875 -28.40625 C 22.410156 -27.632812 23.171875 -26.679688 23.703125 -25.546875 C 24.242188 -24.421875 24.515625 -23.140625 24.515625 -21.703125 C 24.515625 -20.265625 24.242188 -18.992188 23.703125 -17.890625 C 23.171875 -16.785156 22.410156 -15.847656 21.421875 -15.078125 C 20.441406 -14.316406 19.289062 -13.742188 17.96875 -13.359375 C 16.644531 -12.972656 15.195312 -12.78125 13.625 -12.78125 L 9.46875 -12.78125 L 9.46875 0 Z M 9.46875 -17.953125 L 13.625 -17.953125 C 15.53125 -17.953125 16.90625 -18.269531 17.75 -18.90625 C 18.59375 -19.550781 19.015625 -20.484375 19.015625 -21.703125 C 19.015625 -22.941406 18.585938 -23.898438 17.734375 -24.578125 C 16.878906 -25.265625 15.507812 -25.609375 13.625 -25.609375 L 9.46875 -25.609375 Z M 9.46875 -17.953125 "/></g></g></g><g fill="#1fa2c5" fill-opacity="1"><g transform="translate(682.431122, 595.236871)"><g><path d="M 0.265625 0 L 12.609375 -30.78125 L 16.75 -30.78125 L 29.03125 0 L 23.0625 0 L 20.671875 -6.703125 L 8.703125 -6.703125 L 6.296875 0 Z M 10.578125 -11.4375 L 18.796875 -11.4375 L 14.703125 -22.640625 Z M 10.578125 -11.4375 "/></g></g></g><g fill="#1fa2c5" fill-opacity="1"><g transform="translate(717.793637, 595.236871)"><g><path d="M 3.96875 0 L 3.96875 -30.78125 L 9.515625 -30.78125 L 9.515625 -19.65625 L 12.78125 -19.65625 L 20.0625 -30.78125 L 27.484375 -30.78125 L 18.28125 -18.1875 C 18.875 -18.1875 19.425781 -18 19.9375 -17.625 C 20.457031 -17.257812 20.929688 -16.789062 21.359375 -16.21875 C 21.796875 -15.644531 22.175781 -15.050781 22.5 -14.4375 C 22.820312 -13.832031 23.09375 -13.296875 23.3125 -12.828125 L 29.03125 0 L 22.15625 0 L 18.546875 -10.3125 C 18.410156 -10.707031 18.222656 -11.144531 17.984375 -11.625 C 17.753906 -12.101562 17.472656 -12.554688 17.140625 -12.984375 C 16.804688 -13.410156 16.414062 -13.765625 15.96875 -14.046875 C 15.519531 -14.335938 15.007812 -14.484375 14.4375 -14.484375 L 9.515625 -14.484375 L 9.515625 0 Z M 3.96875 0 "/></g></g></g><g fill="#1fa2c5" fill-opacity="1"><g transform="translate(753.352376, 595.236871)"><g><path d="M 10.09375 0 L 10.09375 -25.828125 L 0.4375 -25.828125 L 0.4375 -30.78125 L 25.28125 -30.78125 L 25.28125 -25.828125 L 15.640625 -25.828125 L 15.640625 0 Z M 10.09375 0 "/></g></g></g><g fill="#1fa2c5" fill-opacity="1"><g transform="translate(785.160644, 595.236871)"><g><path d="M 27.75 0 L 22.421875 0 L 22.421875 -21.609375 L 9.515625 0 L 3.96875 0 L 3.96875 -30.828125 L 9.296875 -30.828125 L 9.296875 -9.25 L 22.25 -30.828125 L 27.75 -30.828125 Z M 27.75 0 "/></g></g></g><g fill="#1fa2c5" fill-opacity="1"><g transform="translate(822.943501, 595.236871)"><g><path d="M 3.96875 0 L 3.96875 -30.828125 L 14.65625 -30.828125 C 15.601562 -30.828125 16.546875 -30.734375 17.484375 -30.546875 C 18.421875 -30.367188 19.3125 -30.078125 20.15625 -29.671875 C 21 -29.273438 21.75 -28.753906 22.40625 -28.109375 C 23.0625 -27.460938 23.578125 -26.675781 23.953125 -25.75 C 24.328125 -24.820312 24.515625 -23.742188 24.515625 -22.515625 C 24.515625 -21.578125 24.347656 -20.707031 24.015625 -19.90625 C 23.691406 -19.113281 23.269531 -18.425781 22.75 -17.84375 C 22.226562 -17.257812 21.675781 -16.804688 21.09375 -16.484375 C 21.789062 -16.210938 22.441406 -15.8125 23.046875 -15.28125 C 23.648438 -14.75 24.175781 -14.132812 24.625 -13.4375 C 25.070312 -12.75 25.421875 -12.019531 25.671875 -11.25 C 25.921875 -10.476562 26.046875 -9.707031 26.046875 -8.9375 C 26.046875 -7.5 25.769531 -6.226562 25.21875 -5.125 C 24.664062 -4.019531 23.921875 -3.082031 22.984375 -2.3125 C 22.046875 -1.550781 20.972656 -0.972656 19.765625 -0.578125 C 18.554688 -0.191406 17.296875 0 15.984375 0 Z M 9.515625 -18.40625 L 15.1875 -18.40625 C 15.90625 -18.40625 16.585938 -18.507812 17.234375 -18.71875 C 17.890625 -18.9375 18.421875 -19.320312 18.828125 -19.875 C 19.234375 -20.425781 19.4375 -21.203125 19.4375 -22.203125 C 19.4375 -23.003906 19.226562 -23.671875 18.8125 -24.203125 C 18.394531 -24.742188 17.832031 -25.148438 17.125 -25.421875 C 16.425781 -25.691406 15.632812 -25.828125 14.75 -25.828125 L 9.515625 -25.828125 Z M 9.515625 -5.28125 L 16.078125 -5.28125 C 17.503906 -5.28125 18.613281 -5.628906 19.40625 -6.328125 C 20.195312 -7.023438 20.59375 -8.097656 20.59375 -9.546875 C 20.59375 -10.296875 20.398438 -10.976562 20.015625 -11.59375 C 19.628906 -12.207031 19.082031 -12.695312 18.375 -13.0625 C 17.664062 -13.4375 16.828125 -13.625 15.859375 -13.625 L 9.515625 -13.625 Z M 9.515625 -5.28125 "/></g></g></g><g fill="#1fa2c5" fill-opacity="1"><g transform="translate(856.801445, 595.236871)"><g><path d="M 3.96875 0 L 3.96875 -30.828125 L 9.515625 -30.828125 L 9.515625 -17.953125 L 23.015625 -17.953125 L 23.015625 -30.828125 L 28.546875 -30.828125 L 28.546875 0 L 23.015625 0 L 23.015625 -12.875 L 9.515625 -12.875 L 9.515625 0 Z M 3.96875 0 "/></g></g></g><g fill="#1fa2c5" fill-opacity="1"><g transform="translate(895.39113, 595.236871)"><g><path d="M 0.265625 0 L 12.609375 -30.78125 L 16.75 -30.78125 L 29.03125 0 L 23.0625 0 L 20.671875 -6.703125 L 8.703125 -6.703125 L 6.296875 0 Z M 10.578125 -11.4375 L 18.796875 -11.4375 L 14.703125 -22.640625 Z M 10.578125 -11.4375 "/></g></g></g></svg>